<?xml version="1.0" encoding="UTF-8"?>
<rss version="2.0" xmlns:atom="http://www.w3.org/2005/Atom" xmlns:content="http://purl.org/rss/1.0/modules/content/">
<channel>
<title>PT电影RSS</title>
<link>https://liuhangbj.github.io/pt-rss</link>
<description>PT电影RSS - 生成时间: 2026-05-22 18:05:00 | 保留最近7天</description>
<lastBuildDate>Fri, 22 May 2026 18:05:00 +0800</lastBuildDate>
<language>zh-CN</language>
<item>
<title>[未监控] [死者 A Falecida (1971) 巴西新浪潮作品] A Falecida 1965.1080p WEB x264 AAC-DizCosta mkv[死者 A Falecida (1971) 巴西新浪潮作品][11.38 GB][anonymous]</title>
<link>https://hdhome.org/details.php?id=293249</link>
<guid isPermaLink="false">cf15af84d4420d5ee3bfd57167795cee4ca976eb</guid>
<pubDate>Fri, 22 May 2026 16:55:12 +0800</pubDate>
<source>hdhome</source>
<enclosure url="https://hdhome.org/download.php?id=293249" type="application/x-bittorrent" />
<description><![CDATA[<p><b>🔗 来源:</b> hdhome</p>
<p><b>📅 发布时间:</b> Fri, 22 May 2026 16:55:12 +0800</p>
<p><b>⬇️ 详情:</b> <a href="https://hdhome.org/details.php?id=293249">https://hdhome.org/details.php?id=293249</a></p><hr/><p><b>📄 原文内容:</b></p>
<div><img alt="image" src="https://img.pterclub.net/images/2026/05/22/p2872920898.jpg" /><br />
<br />
导演: Leon Hirszman<br />
编剧: 莱昂·赫兹曼 / 爱德华多·库蒂尼奥 / Nelson Rodrigues<br />
主演: Fernanda Montenegro<br />
类型: 剧情<br />
制片国家/地区: 巴西<br />
语言: 葡萄牙语<br />
上映日期: 1971-09-19<br />
片长: 90 分钟<br />
又名: The Death / The Deceased<br />
IMDb: tt0059163<br />
<br />
　　Woman who is obsessed with death wants a first-class burial for herself, and even buys a luxury coffin beforehand.<br />
　　Zulmira (Fernanda Montenegro) is a woman who visits the doctor when she decides she is dying. The doctor pronounces that she is in good health, but Zulmira sets aside a sizeable sum of money for her elaborate funeral. She catches cold and asks her husband (Ivan Candido) on her deathbed to take the money for the services. The roguish husband passes himself off as a cousin and gives her the cheapest available funeral. He goes to a soccer game where he gambles away the rest of the money and falls apart emotionally in this grim and satirical comedy drama.<br />
　　Leon Hirszman&#039;s films pursue the subtle and the psychological searching for the contradictions of character. A FALECIDA (THE DECEASED WOMAN, 1965) wills her own death in anticipation of her opulent funeral. Her husband, following her instructions, discovers her rich and corrupt former lover and uncovers a passionate and abandoned side of the woman who, with him, had always been neurotic, repressed and obsessive.<br />
　　This film was based in a Nelson Rodrigues&#039; story. It&#039;s about a married woman , who lives in a suburb in Rio de Janeiro . She&#039;s not happy and dreams of a sophisticated funeral for herself. Fernanda Montenegro is one of the best actresses of Brazil and Nelson Rodrigues one of the best dramatists. A great drama.<br />
<br />
<fieldset><legend> 引用 </legend>General<br />
Unique ID &nbsp; &nbsp; &nbsp; &nbsp; &nbsp; &nbsp; &nbsp; &nbsp; &nbsp; : 23512773619202726461661727624810678229 (0x11B0653E1AA0C7DF4CB247F7D9BB47D5)<br />
Complete name &nbsp; &nbsp; &nbsp; &nbsp; &nbsp; &nbsp; &nbsp; : A.Falecida.1965.1080p.WEB.x264.AAC-DizCosta.mkv<br />
Format &nbsp; &nbsp; &nbsp; &nbsp; &nbsp; &nbsp; &nbsp; &nbsp; &nbsp; &nbsp; &nbsp;: Matroska<br />
Format version &nbsp; &nbsp; &nbsp; &nbsp; &nbsp; &nbsp; &nbsp;: Version 4<br />
File size &nbsp; &nbsp; &nbsp; &nbsp; &nbsp; &nbsp; &nbsp; &nbsp; &nbsp; : 11.4 GiB<br />
Duration &nbsp; &nbsp; &nbsp; &nbsp; &nbsp; &nbsp; &nbsp; &nbsp; &nbsp; &nbsp;: 1 h 36 min<br />
Overall bit rate &nbsp; &nbsp; &nbsp; &nbsp; &nbsp; &nbsp;: 16.9 Mb/s<br />
Frame rate &nbsp; &nbsp; &nbsp; &nbsp; &nbsp; &nbsp; &nbsp; &nbsp; &nbsp;: 23.976 FPS<br />
Encoded date &nbsp; &nbsp; &nbsp; &nbsp; &nbsp; &nbsp; &nbsp; &nbsp;: 2023-09-29 07:03:09 UTC<br />
Writing application &nbsp; &nbsp; &nbsp; &nbsp; : mkvmerge v79.0 (&#039;Funeral Pyres&#039;) 64-bit<br />
Writing library &nbsp; &nbsp; &nbsp; &nbsp; &nbsp; &nbsp; : libebml v1.4.4 + libmatroska v1.7.1<br />
<br />
Video<br />
ID &nbsp; &nbsp; &nbsp; &nbsp; &nbsp; &nbsp; &nbsp; &nbsp; &nbsp; &nbsp; &nbsp; &nbsp; &nbsp;: 1<br />
Format &nbsp; &nbsp; &nbsp; &nbsp; &nbsp; &nbsp; &nbsp; &nbsp; &nbsp; &nbsp; &nbsp;: AVC<br />
Format/Info &nbsp; &nbsp; &nbsp; &nbsp; &nbsp; &nbsp; &nbsp; &nbsp; : Advanced Video Codec<br />
Format profile &nbsp; &nbsp; &nbsp; &nbsp; &nbsp; &nbsp; &nbsp;: Main@L4.1<br />
Format settings &nbsp; &nbsp; &nbsp; &nbsp; &nbsp; &nbsp; : CABAC / 1 Ref Frames<br />
Format settings, CABAC &nbsp; &nbsp; &nbsp;: Yes<br />
Format settings, Reference &nbsp;: 1 frame<br />
Format settings, GOP &nbsp; &nbsp; &nbsp; &nbsp;: M=1, N=30<br />
Codec ID &nbsp; &nbsp; &nbsp; &nbsp; &nbsp; &nbsp; &nbsp; &nbsp; &nbsp; &nbsp;: V_MPEG4/ISO/AVC<br />
Duration &nbsp; &nbsp; &nbsp; &nbsp; &nbsp; &nbsp; &nbsp; &nbsp; &nbsp; &nbsp;: 1 h 36 min<br />
Bit rate &nbsp; &nbsp; &nbsp; &nbsp; &nbsp; &nbsp; &nbsp; &nbsp; &nbsp; &nbsp;: 16.6 Mb/s<br />
Width &nbsp; &nbsp; &nbsp; &nbsp; &nbsp; &nbsp; &nbsp; &nbsp; &nbsp; &nbsp; &nbsp; : 1 790 pixels<br />
Height &nbsp; &nbsp; &nbsp; &nbsp; &nbsp; &nbsp; &nbsp; &nbsp; &nbsp; &nbsp; &nbsp;: 1 080 pixels<br />
Display aspect ratio &nbsp; &nbsp; &nbsp; &nbsp;: 5:3<br />
Frame rate mode &nbsp; &nbsp; &nbsp; &nbsp; &nbsp; &nbsp; : Constant<br />
Frame rate &nbsp; &nbsp; &nbsp; &nbsp; &nbsp; &nbsp; &nbsp; &nbsp; &nbsp;: 23.976 (24000/1001) FPS<br />
Color space &nbsp; &nbsp; &nbsp; &nbsp; &nbsp; &nbsp; &nbsp; &nbsp; : YUV<br />
Chroma subsampling &nbsp; &nbsp; &nbsp; &nbsp; &nbsp;: 4:2:0<br />
Bit depth &nbsp; &nbsp; &nbsp; &nbsp; &nbsp; &nbsp; &nbsp; &nbsp; &nbsp; : 8 bits<br />
Scan type &nbsp; &nbsp; &nbsp; &nbsp; &nbsp; &nbsp; &nbsp; &nbsp; &nbsp; : Progressive<br />
Bits/(Pixel*Frame) &nbsp; &nbsp; &nbsp; &nbsp; &nbsp;: 0.359<br />
Stream size &nbsp; &nbsp; &nbsp; &nbsp; &nbsp; &nbsp; &nbsp; &nbsp; : 11.2 GiB (98%)<br />
Language &nbsp; &nbsp; &nbsp; &nbsp; &nbsp; &nbsp; &nbsp; &nbsp; &nbsp; &nbsp;: Portuguese<b...</div>]]></description>
</item>
<item>
<title>[未监控] [【美女器官] Guts of a Beauty 1986 1080p BluRay x265 10bit FLAC 2.0 MNHD-FRDS[【美女器官/肠穿肚烂/Bijo no harawata】10bit HEVC版本 情色系列第193部 日语 简繁英字幕][6.84 GB][anonymous]</title>
<link>https://hdhome.org/details.php?id=293245</link>
<guid isPermaLink="false">e14edf026ecfe47d7d76923e206082edc231be86</guid>
<pubDate>Fri, 22 May 2026 16:07:39 +0800</pubDate>
<source>hdhome</source>
<enclosure url="https://hdhome.org/download.php?id=293245" type="application/x-bittorrent" />
<description><![CDATA[<p><b>🔗 来源:</b> hdhome</p>
<p><b>📅 发布时间:</b> Fri, 22 May 2026 16:07:39 +0800</p>
<p><b>⬇️ 详情:</b> <a href="https://hdhome.org/details.php?id=293245">https://hdhome.org/details.php?id=293245</a></p><hr/><p><b>📄 原文内容:</b></p>
<div>[quote]<b><span style="color: blue;">FRDS官组作品，感谢原制作者发布。</span></b>[/quote]<br />
<br />
[quote]原盘来自Guts.of.a.Beauty.1986.GBR.BluRay.1080p.AVC.LPCM.2.0-FFansDIY@至尊宝<br />
[quote]英版原盘@无后缀,字幕来自FFans@抠脚<br />
素材全部由本人二次调整匹配,对素材提供者以上一并感谢<br />
仅在PD22测试[/quote]<br />
<img alt="image" src="https://image.tmdb.org/t/p/original/3bAstAPpt3E5dslgLOhbftZTLeN.jpg" /><br />
◎译　　名　美女器官 / 肠穿肚烂 / Bijo no harawata / Guts of a Beauty / Entrails of a Beautiful Woman<br />
◎片　　名　美女のはらわた<br />
◎年　　代　1986<br />
◎产　　地　日本<br />
◎类　　别　科幻 / 恐怖<br />
◎语　　言　日语<br />
◎上映日期　1986-09-23(日本)<br />
◎IMDb评分  5.0/10 from 1,055 users<br />
◎IMDb链接  <a class="faqlink" href="https://www.imdb.com/title/tt0224102/">https://www.imdb.com/title/tt0224102/</a><br />
◎豆瓣评分　5.3/10 from 1,850 users<br />
◎豆瓣链接　<a class="faqlink" href="https://movie.douban.com/subject/1814266/">https://movie.douban.com/subject/1814266/</a><br />
◎片　　长　70分钟<br />
◎导　　演　小水一男 / Kazuo &#039;Gaira&#039; Komizu<br />
◎编　　剧　小水一男 / Kazuo &#039;Gaira&#039; Komizu<br />
◎摄　　影　伊藤昭裕 / Akihiro Itô<br />
<br />
◎简　　介　<br />
<br />
血淋淋的日本经典。<br />
　　一群邪恶性质的黑社会掌握了一种特殊的注射迷情毒品，称作“天使雨露”。被注射的女孩被强奸后，被年轻貌美的女心理医生救助，但当夜还是坠楼自杀了。心理医生潜入黑社会团体内部，不料被性功能障碍的老大和他施虐狂的老婆控制，在暗屋被捆绑遭x被注射“天使雨露”，最后尸变，化为怪物开始大开杀戒.....<br />
　　一直和名为《处女器官》（Entrails of a Virgin ）的同类电影相互混淆。<br />
<br />
 &nbsp;<br />
[quote]General<br />
Unique ID &nbsp; &nbsp; &nbsp; &nbsp; &nbsp; &nbsp; &nbsp; &nbsp; &nbsp; &nbsp; &nbsp; &nbsp; &nbsp; &nbsp; &nbsp; &nbsp;: 331653661559086477759088698749342385859 (0xF9822BFAD67BAE1E32E8A43BEE2F06C3)<br />
Complete name &nbsp; &nbsp; &nbsp; &nbsp; &nbsp; &nbsp; &nbsp; &nbsp; &nbsp; &nbsp; &nbsp; &nbsp; &nbsp; &nbsp;: /downloads/电影/Pornographic Movies Collection Complete.FRDS/美女器官.Guts.of.a.Beauty.1986.1080p.BluRay.x265.10bit.FLAC.MNHD-FRDS/Guts.of.a.Beauty.1986.1080p.BluRay.x265.10bit.FLAC.MNHD-FRDS.mkv<br />
Format &nbsp; &nbsp; &nbsp; &nbsp; &nbsp; &nbsp; &nbsp; &nbsp; &nbsp; &nbsp; &nbsp; &nbsp; &nbsp; &nbsp; &nbsp; &nbsp; &nbsp; : Matroska<br />
Format version &nbsp; &nbsp; &nbsp; &nbsp; &nbsp; &nbsp; &nbsp; &nbsp; &nbsp; &nbsp; &nbsp; &nbsp; &nbsp; : Version 4<br />
File size &nbsp; &nbsp; &nbsp; &nbsp; &nbsp; &nbsp; &nbsp; &nbsp; &nbsp; &nbsp; &nbsp; &nbsp; &nbsp; &nbsp; &nbsp; &nbsp;: 6.84 GiB<br />
Duration &nbsp; &nbsp; &nbsp; &nbsp; &nbsp; &nbsp; &nbsp; &nbsp; &nbsp; &nbsp; &nbsp; &nbsp; &nbsp; &nbsp; &nbsp; &nbsp; : 1 h 8 min<br />
Overall bit rate mode &nbsp; &nbsp; &nbsp; &nbsp; &nbsp; &nbsp; &nbsp; &nbsp; &nbsp; &nbsp;: Variable<br />
Overall bit rate &nbsp; &nbsp; &nbsp; &nbsp; &nbsp; &nbsp; &nbsp; &nbsp; &nbsp; &nbsp; &nbsp; &nbsp; : 14.4 Mb/s<br />
Frame rate &nbsp; &nbsp; &nbsp; &nbsp; &nbsp; &nbsp; &nbsp; &nbsp; &nbsp; &nbsp; &nbsp; &nbsp; &nbsp; &nbsp; &nbsp; : 23.976 FPS<br />
Movie name &nbsp; &nbsp; &nbsp; &nbsp; &nbsp; &nbsp; &nbsp; &nbsp; &nbsp; &nbsp; &nbsp; &nbsp; &nbsp; &nbsp; &nbsp; : Guts.of.a.Beauty.1986.1080p.BluRay.x265.10bit.FLAC.MNHD-FRDS<br />
Encoded date &nbsp; &nbsp; &nbsp; &nbsp; &nbsp; &nbsp; &nbsp; &nbsp; &nbsp; &nbsp; &nbsp; &nbsp; &nbsp; &nbsp; : 2025-04-23 17:25:53 UTC<br />
Writing application &nbsp; &nbsp; &nbsp; &nbsp; &nbsp; &nbsp; &nbsp; &nbsp; &nbsp; &nbsp; &nbsp;: mkvmerge v73.0.0 (&#039;25 or 6 to 4&#039;) 64-bit<br />
Writing library &nbsp; &nbsp; &nbsp; &nbsp; &nbsp; &nbsp; &nbsp; &nbsp; &nbsp; &nbsp; &nbsp; &nbsp; &nbsp;: libebml v1.4.4 + libmatroska v1.7.1<br />
Cover &nbsp; &nbsp; &nbsp; &nbsp; &nbsp; &nbsp; &nbsp; &nbsp; &nbsp; &nbsp; &nbsp; &nbsp; &nbsp; &nbsp; &nbsp; &nbsp; &nbsp; &nbsp;: Yes<br />
Attachments &nbsp; &nbsp; &nbsp; &nbsp; &nbsp; &nbsp; &nbsp; &nbsp; &nbsp; &nbsp; &nbsp; &nbsp; &nbsp; &nbsp; &nbsp;: cover.jpg<br />
<br />
Video<br />
ID &nbsp; &nbsp; &nbsp; &nbsp; &nbsp; &nbsp; &nbsp; &nbsp; &nbsp; &nbsp; &nbsp; &nbsp; &nbsp; &nbsp; &nbsp; &nbsp; &nbsp; &nbsp; &nbsp; : 1<br />
Format &nbsp; &nbsp; &nbsp; &nbsp; &nbsp; &nbsp; &nbsp; &nbsp; &nbsp; &nbsp; &nbsp; &nbsp; &nbsp; &nbsp; &nbsp; &nbsp; &nbsp; : HEVC<br />
Format/Info &nbsp; &nbsp; &nbsp; &nbsp; &nbsp; &nbsp; &nbsp; &nbsp; &nbsp; &nbsp; &nbsp; &nbsp; &nbsp; &nbsp; &nbsp;: High Efficiency Video Coding<br />
Format profile &nbsp; &nbsp; &nbsp; &nbsp; &nbsp; &nbsp; &nbsp; &nbsp; &nbsp; &nbsp; &nbsp; &nbsp; &nbsp; : Main 10@L5.1@High<br />
Codec ID &nbsp; &nbsp; &nbsp; &nbsp; &nbsp; &nbsp; &nbsp; &nbsp; &nbsp; &nbsp; &nbsp; &nbsp; &nbsp; &nbsp; &nbsp; &nbsp; : V_MPEGH/ISO/HEVC<br />
Duration &nbsp; &nbsp; &nbsp; &nbsp; &nbsp; &nbsp; &nbsp; &nbsp; &nbsp; &nbsp; &nbsp; &nbsp; &nbsp; &nbsp; &nbsp; &nbsp; : 1 h 8 min<br />
Bit rate &nbsp; &nbsp; &nbsp; &nbsp; &nbsp; &nbsp; &nbsp; &nbsp; &nbsp; &nbsp; &nbsp; &nbsp; &nbsp; &nbsp; &nbsp; &nbsp; : 13.0 Mb/s<br />
Width &nbsp; &nbsp; &nbsp; &nbsp; &nbsp; &nbsp; &nbsp; &nbsp; &nbsp; &nbsp; &nbsp; &nbsp; &nbsp; &nbsp; &nbsp; &nbsp; &nbsp; &nbsp;: 1 920 pixels<br />
Height &nbsp; &nbsp; &nbsp; &nbsp; &nbsp; &nbsp; &nbsp; &nbsp; &nbsp; &nbsp; &nbsp; &nbsp; &nbsp; &nbsp; &nbsp; &nbsp;...</div>]]></description>
</item>
<item>
<title>[未监控] [【罗曼史] Romance 1999 BluRay 1080p x265 10bit DDP5.1 RERIP MNHD-FRDS[【罗曼史/浪漫情色/罗曼丝】10bit HEVC版本 情色系列第140部 法语 简繁字幕][7.93 GB][anonymous]</title>
<link>https://hdhome.org/details.php?id=293242</link>
<guid isPermaLink="false">7c91dcd15620c5bb9544dc2b1117533deb72e774</guid>
<pubDate>Fri, 22 May 2026 16:02:46 +0800</pubDate>
<source>hdhome</source>
<enclosure url="https://hdhome.org/download.php?id=293242" type="application/x-bittorrent" />
<description><![CDATA[<p><b>🔗 来源:</b> hdhome</p>
<p><b>📅 发布时间:</b> Fri, 22 May 2026 16:02:46 +0800</p>
<p><b>⬇️ 详情:</b> <a href="https://hdhome.org/details.php?id=293242">https://hdhome.org/details.php?id=293242</a></p><hr/><p><b>📄 原文内容:</b></p>
<div><fieldset><legend> 引用 </legend><b><span style="color: blue;">FRDS官组作品，感谢原制作者发布。</span></b></fieldset><br />
<br />
<fieldset><legend> 引用 </legend>原盘来自Romance 1999 1080p GBR BluRay AVC DTS-HD MA 5.1-CrsS<br />
中文字幕来自 我爱BT@zimuku，感谢字幕原作者！<br />
感谢以上所有素材提供者！<br />
相比站内之前版本提升了码率和音轨规格</fieldset><br />
<img alt="image" src="https://image.tmdb.org/t/p/original/lcDSXXnZok1qyv4TQ14iZ8g8OHf.jpg" /><br />
◎译　　名　罗曼史 / 浪漫情色 / 罗曼丝<br />
◎片　　名　Romance<br />
◎年　　代　1999<br />
◎产　　地　法国<br />
◎类　　别　剧情 / 爱情 / 情色<br />
◎语　　言　法语 / 英语<br />
◎上映日期　1999-04-14(法国)<br />
◎IMDb链接  <a class="faqlink" href="https://www.imdb.com/title/tt0194314/">https://www.imdb.com/title/tt0194314/</a><br />
◎豆瓣评分　6.7/10 from 24,613 users<br />
◎豆瓣链接　<a class="faqlink" href="https://movie.douban.com/subject/1299698/">https://movie.douban.com/subject/1299698/</a><br />
◎片　　长　84 分钟<br />
◎导　　演　凯瑟琳·布雷亚 / Catherine Breillat<br />
◎演　　员　卡罗琳·杜西 / Caroline Ducey<br />
　　　　　　萨加莫尔·斯蒂芬南 / Sagamore Stévenin<br />
　　　　　　弗朗索瓦·贝莱昂 / François Berléand<br />
　　　　　　洛可·希佛帝 / Rocco Siffredi<br />
　　　　　　Reza Habouhossein Reza Habouhossein (饰 Homme escaliers)<br />
　　　　　　Ashley Wanninger Ashley Wanninger<br />
　　　　　　艾玛·科尔伯蒂 / Emma Colberti<br />
　　　　　　Fabien de Jomaron Fabien de Jomaron (饰 Claude)<br />
　　　　　　Carla Carla (饰 Mannequin)<br />
　　　　　　Pierre Maufront Pierre Maufront (饰 Photographe)<br />
　　　　　　Antoine Amador Antoine Amador (饰 Coiffeur)<br />
　　　　　　Roman Rouzier Roman Rouzier (饰 L&#039;échographiste)<br />
　　　　　　Oliver Buchette Oliver Buchette (饰 Le médecin-Chef)<br />
　　　　　　Emmanuelle N&#039;Guyen Emmanuelle N&#039;Guyen (饰 La sage femme)<br />
　　　　　　Nadia Latoui Nadia Latoui (饰 L&#039;infirmière)<br />
　　　　　　Sylvie Drieu Sylvie Drieu (饰 L&#039;aide soignante)<br />
　　　　　　Samuel Charter Samuel Charter (饰 Interne)<br />
　　　　　　Alexis Gignoux Alexis Gignoux (饰 Interne)<br />
　　　　　　Muriel Gregoire Muriel Gregoire (饰 Interne)<br />
　　　　　　Sebastien Jochmans Sebastien Jochmans (饰 Interne)<br />
◎编　　剧　凯瑟琳·布雷亚 / Catherine Breillat<br />
◎摄　　影　乔治·阿凡尼提斯 / Giorgos Arvanitis<br />
<br />
◎简　　介　<br />
<br />
　　年轻漂亮的小学教师玛丽（Caroline Ducey 凯瑟琳•杜希 饰）与相识三个月的男友保罗（Sagamore Stévenin 萨加莫尔•史蒂文 饰）同居，虽然保罗口口声声说深爱玛丽，却从不与她做爱。纵然玛丽极尽挑逗之能，也始终得不到回应。倍感失落和挫折的她终于尝试出轨，她周转与各色男人之间，尽情享受久违的肉体欢愉。<br />
　　然而即便如此，玛丽仍然疯狂爱着那个让她心碎、嫉妒、痴迷的保罗。在不甚成功的床第欢愉之后，玛丽终于怀有身孕，也如愿和保罗走入婚姻的殿堂。只是，似乎一切并未因此有所改变……<br />
<br />
 &nbsp;<br />
<fieldset><legend> 引用 </legend>General<br />
Unique ID &nbsp; &nbsp; &nbsp; &nbsp; &nbsp; &nbsp; &nbsp; &nbsp; &nbsp; &nbsp; &nbsp; &nbsp; &nbsp; &nbsp; &nbsp; &nbsp;: 46043951074420777364457920280091142587 (0x22A3BE0ECAD503EF50FD094D3817A9BB)<br />
Complete name &nbsp; &nbsp; &nbsp; &nbsp; &nbsp; &nbsp; &nbsp; &nbsp; &nbsp; &nbsp; &nbsp; &nbsp; &nbsp; &nbsp;: /downloads/电影/Pornographic Movies Collection Complete.FRDS/罗曼史.Romance.1999.BluRay.1080p.x265.10bit.DDP5.1.RERIP.MNHD-FRDS/Romance.1999.BluRay.1080p.x265.10bit.DDP5.1.RERIP.MNHD-FRDS.mkv<br />
Format &nbsp; &nbsp; &nbsp; &nbsp; &nbsp; &nbsp; &nbsp; &nbsp; &nbsp; &nbsp; &nbsp; &nbsp; &nbsp; &nbsp; &nbsp; &nbsp; &nbsp; : Matroska<br />
Format version &nbsp; &nbsp; &nbsp; &nbsp; &nbsp; &nbsp; &nbsp; &nbsp; &nbsp; &nbsp; &nbsp; &nbsp; &nbsp; : Version 4<br />
File size &nbsp; &nbsp; &nbsp; &nbsp; &nbsp; &nbsp; &nbsp; &nbsp; &nbsp; &nbsp; &nbsp; &nbsp; &nbsp; &nbsp; &nbsp; &nbsp;: 7.93 GiB<br />
Duration &nbsp; &nbsp; &nbsp; &nbsp; &nbsp; &nbsp; &nbsp; &nbsp; &nbsp; &nbsp; &nbsp; &nbsp; &nbsp; &nbsp; &nbsp; &nbsp; : 1 h 38 min<br />
Overall bit rate &nbsp; &nbsp; &nbsp; &nbsp; &nbsp; &nbsp; &nbsp; &nbsp; &nbsp; &nbsp; &nbsp; &nbsp; : 11.5 Mb/s<br />
Frame rate &nbsp; &nbsp; &nbsp; &nbsp; &nbsp; &nbsp; &nbsp; &nbsp; &nbsp; &nbsp; &nbsp; &nbsp; &nbsp; &nbsp; &nbsp; : 23.976 FPS<br />
Movie name &nbsp; &nbsp; &nbsp; &nbsp; &nbsp; &nbsp; &nbsp; &nbsp; &nbsp; &nbsp; &nbsp; &nbsp; &nbsp; &nbsp; &nbsp; : Romance<br />
Encoded date &nbsp; &nbsp; &nbsp; &nbsp; &nbsp; &nbsp; &nbsp; &nbsp; &nbsp; &nbsp; &nbsp; &nbsp; &nbsp; &nbsp; : 2025-03-08 17:10:17 UTC<br />
Writing application &nbsp; &nbsp; &nbsp; &nbsp; &nbsp; &nbsp; &nbsp; &nbsp; &nbsp; &nbsp; &nbsp;: mkvmerge v85.0 (&#039;Shame For You&#039;) 64-bit<br />
Writing library &nbsp; &nbsp; &nbsp; &nbsp; &nbsp; &nbsp; &nbsp; &nbsp; &nbsp; &nbsp; &nbsp; &nbsp; &nbsp;: libebml v1.4.5 + libmatroska v1.7.1<br />
Cover &nbsp; &nbsp; &nbsp; &nbsp; &nbsp; &nbsp; &nbsp; &nbsp; &nbsp; &nbsp; &nbsp; &nbsp; &nbsp; &nbsp; &nbsp; &nbsp; &nbsp; &nbsp;: Yes<br />
Attachments &nbsp; &nbsp; &nbsp; &nbsp; &nbsp; &nbsp; &nbsp; &nbsp; &nbsp; &nbsp; &nbsp; &nbsp; &nbsp; &nbsp; &nbsp;: cover.jpg<br />
<br />
Video<br />
ID &nbsp; &nbsp; &nbsp; &nbsp; &nbsp; &nbsp; &nbsp; &nbsp; &nbsp; &nbsp; &nbsp; &nbsp; &nbsp; &nbsp; &nbsp; &nbsp; &nbsp; &nbsp; &nbsp; : 1<br />
Format &nbsp; &nbsp; &nbsp; &nbsp; &nbsp; &nbsp; &nbsp; &nbsp; &nbsp; &nbsp; &nbsp; &nbsp; &nbsp; &nbsp; &nbsp; &nbsp; &nbsp; : HEVC<br />
Format/Info &nbsp; &nbsp; &nbsp; &nbsp; &nbsp; &nbsp; &nb...</div>]]></description>
</item>
<item>
<title>[未监控] [女士优先] Ladies First 2026 2160p NF WEB-DL DDP 5.1 Atmos DV HDR H.265-KRATOS[女士优先 / 男人要自爱(美版) | 类型: 喜剧 / 爱情][8.87 GB]</title>
<link>https://ptchdbits.co/details.php?id=551208</link>
<guid isPermaLink="false">2c2aa23bd8f04d55367f3adb99b072127d837ceb</guid>
<pubDate>Fri, 22 May 2026 15:08:55 +0800</pubDate>
<source>ptchdbits</source>
<enclosure url="https://ptchdbits.co/download.php?id=551208" type="application/x-bittorrent" />
<description><![CDATA[<p><b>🔗 来源:</b> ptchdbits</p>
<p><b>📅 发布时间:</b> Fri, 22 May 2026 15:08:55 +0800</p>
<p><b>⬇️ 详情:</b> <a href="https://ptchdbits.co/details.php?id=551208">https://ptchdbits.co/details.php?id=551208</a></p><hr/><p><b>📄 原文内容:</b></p>
<div><img alt="image" src="https://img2.pixhost.to/images/8080/729226048_p2932533733.jpg" /><br /><br />◎译　　名　女士优先 / 男人要自爱(美版)<br />◎片　　名　Ladies First<br />◎年　　代　2026<br />◎产　　地　美国<br />◎类　　别　喜剧 / 爱情<br />◎语　　言　英语<br />◎上映日期　2026-05-22(美国网络)<br />◎IMDb链接 &nbsp;<a class="faqlink" href="https://www.imdb.com/title/tt34611082/">https://www.imdb.com/title/tt34611082/</a><br />◎豆瓣链接　<a class="faqlink" href="https://movie.douban.com/subject/37067461/">https://movie.douban.com/subject/37067461/</a><br />◎TMDB链接 &nbsp;<a class="faqlink" href="https://www.themoviedb.org/movie/1368881">https://www.themoviedb.org/movie/1368881</a><br />◎片　　长　90分钟<br /><br />◎简　　介　<br /><br />　　一个冥顽不灵玩弄女性的风流男子（萨莎·拜伦·科恩 Sacha Baron Cohen 饰），进入了一个被女人主宰的平行世界，一个脾气暴躁的他的女性对应者（裴淳华 Rosamund Pike 饰）让事态更加复杂。<br /><br /><fieldset><legend> 引用 </legend><br /><br />General<br />Unique ID &nbsp; &nbsp; &nbsp; &nbsp; &nbsp; &nbsp; &nbsp; &nbsp; &nbsp; &nbsp; &nbsp; &nbsp; &nbsp; &nbsp; &nbsp; &nbsp;: 80606257014849959681856151005884635302 (0x3CA4334E00DE5FA688205730E73CD8A6)<br />Complete name &nbsp; &nbsp; &nbsp; &nbsp; &nbsp; &nbsp; &nbsp; &nbsp; &nbsp; &nbsp; &nbsp; &nbsp; &nbsp; &nbsp;: Ladies.First.2026.2160p.NF.WEB-DL.DDP5.1.Atmos.DV.HDR.H.265-KRATOS.mkv<br />Format &nbsp; &nbsp; &nbsp; &nbsp; &nbsp; &nbsp; &nbsp; &nbsp; &nbsp; &nbsp; &nbsp; &nbsp; &nbsp; &nbsp; &nbsp; &nbsp; &nbsp; : Matroska<br />Format version &nbsp; &nbsp; &nbsp; &nbsp; &nbsp; &nbsp; &nbsp; &nbsp; &nbsp; &nbsp; &nbsp; &nbsp; &nbsp; : Version 4<br />File size &nbsp; &nbsp; &nbsp; &nbsp; &nbsp; &nbsp; &nbsp; &nbsp; &nbsp; &nbsp; &nbsp; &nbsp; &nbsp; &nbsp; &nbsp; &nbsp;: 8.87 GiB<br />Duration &nbsp; &nbsp; &nbsp; &nbsp; &nbsp; &nbsp; &nbsp; &nbsp; &nbsp; &nbsp; &nbsp; &nbsp; &nbsp; &nbsp; &nbsp; &nbsp; : 1 h 33 min<br />Overall bit rate &nbsp; &nbsp; &nbsp; &nbsp; &nbsp; &nbsp; &nbsp; &nbsp; &nbsp; &nbsp; &nbsp; &nbsp; : 13.6 Mb/s<br />Frame rate &nbsp; &nbsp; &nbsp; &nbsp; &nbsp; &nbsp; &nbsp; &nbsp; &nbsp; &nbsp; &nbsp; &nbsp; &nbsp; &nbsp; &nbsp; : 24.000 FPS<br />Writing application &nbsp; &nbsp; &nbsp; &nbsp; &nbsp; &nbsp; &nbsp; &nbsp; &nbsp; &nbsp; &nbsp;: mkvmerge v98.0 ('Chonks') 64-bit<br />Writing library &nbsp; &nbsp; &nbsp; &nbsp; &nbsp; &nbsp; &nbsp; &nbsp; &nbsp; &nbsp; &nbsp; &nbsp; &nbsp;: libebml v1.4.5 + libmatroska v1.7.1<br /><br />Video<br />ID &nbsp; &nbsp; &nbsp; &nbsp; &nbsp; &nbsp; &nbsp; &nbsp; &nbsp; &nbsp; &nbsp; &nbsp; &nbsp; &nbsp; &nbsp; &nbsp; &nbsp; &nbsp; &nbsp; : 1<br />Format &nbsp; &nbsp; &nbsp; &nbsp; &nbsp; &nbsp; &nbsp; &nbsp; &nbsp; &nbsp; &nbsp; &nbsp; &nbsp; &nbsp; &nbsp; &nbsp; &nbsp; : HEVC<br />Format/Info &nbsp; &nbsp; &nbsp; &nbsp; &nbsp; &nbsp; &nbsp; &nbsp; &nbsp; &nbsp; &nbsp; &nbsp; &nbsp; &nbsp; &nbsp;: High Efficiency Video Coding<br />Format profile &nbsp; &nbsp; &nbsp; &nbsp; &nbsp; &nbsp; &nbsp; &nbsp; &nbsp; &nbsp; &nbsp; &nbsp; &nbsp; : Main 10@L5@Main<br />HDR format &nbsp; &nbsp; &nbsp; &nbsp; &nbsp; &nbsp; &nbsp; &nbsp; &nbsp; &nbsp; &nbsp; &nbsp; &nbsp; &nbsp; &nbsp; : Dolby Vision, Version 1.0, Profile 8.1, dvhe.08.06, BL+RPU, no metadata compression, HDR10 compatible / SMPTE ST 2086, Version HDR10, HDR10 compatible<br />Codec ID &nbsp; &nbsp; &nbsp; &nbsp; &nbsp; &nbsp; &nbsp; &nbsp; &nbsp; &nbsp; &nbsp; &nbsp; &nbsp; &nbsp; &nbsp; &nbsp; : V_MPEGH/ISO/HEVC<br />Duration &nbsp; &nbsp; &nbsp; &nbsp; &nbsp; &nbsp; &nbsp; &nbsp; &nbsp; &nbsp; &nbsp; &nbsp; &nbsp; &nbsp; &nbsp; &nbsp; : 1 h 33 min<br />Bit rate &nbsp; &nbsp; &nbsp; &nbsp; &nbsp; &nbsp; &nbsp; &nbsp; &nbsp; &nbsp; &nbsp; &nbsp; &nbsp; &nbsp; &nbsp; &nbsp; : 12.8 Mb/s<br />Width &nbsp; &nbsp; &nbsp; &nbsp; &nbsp; &nbsp; &nbsp; &nbsp; &nbsp; &nbsp; &nbsp; &nbsp; &nbsp; &nbsp; &nbsp; &nbsp; &nbsp; &nbsp;: 3 840 pixels<br />Height &nbsp; &nbsp; &nbsp; &nbsp; &nbsp; &nbsp; &nbsp; &nbsp; &nbsp; &nbsp; &nbsp; &nbsp; &nbsp; &nbsp; &nbsp; &nbsp; &nbsp; : 2 160 pixels<br />Display aspect ratio &nbsp; &nbsp; &nbsp; &nbsp; &nbsp; &nbsp; &nbsp; &nbsp; &nbsp; &nbsp; : 16:9<br />Frame rate mode &nbsp; &nbsp; &nbsp; &nbsp; &nbsp; &nbsp; &nbsp; &nbsp; &nbsp; &nbsp; &nbsp; &nbsp; &nbsp;: Constant<br />Frame rate &nbsp; &nbsp; &nbsp; &nbsp; &nbsp; &nbsp; &nbsp; &nbsp; &nbsp; &nbsp; &nbsp; &nbsp; &nbsp; &nbsp; &nbsp; : 24.000 FPS<br />Color space &nbsp; &nbsp; &nbsp; &nbsp; &nbsp; &nbsp; &nbsp; &nbsp; &nbsp; &nbsp; &nbsp; &nbsp; &nbsp; &nbsp; &nbsp;: YUV<br />Chroma subsampling &nbsp; &nbsp; &nbsp; &nbsp; &nbsp; &nbsp; &nbsp; &nbsp; &nbsp; &nbsp; &nbsp; : 4:2:0 (Type 2)<br />Bit depth &nbsp; &nbsp; &nbsp; &nbsp; &nbsp; &nbsp; &nbsp; &nbsp; &nbsp; &nbsp; &nbsp; &nbsp; &nbsp; &nbsp; &nbsp; &nbsp;: 10 bits<br />Bits/(Pixel*Frame) &nbsp; &nbsp; &nbsp; &nbsp; &nbsp; &nbsp; &nbsp; &nbsp; &nbsp; &nbsp; &nbsp; : 0.064<br />Stream size &nbsp; &nbsp; &nbsp; &nbsp; &nbsp; &nbsp; &nbsp; &nbsp; &nbsp; &nbsp; &nbsp; &nbsp; &nbsp; &nbsp; &nbsp;: 8.36 GiB (94%)<br />Language &nbsp; &nbsp; &nbsp; &nbsp; &nbsp; &nbsp; &nbsp; &nbsp; &nbsp; &nbsp; &nbsp; &nbsp; &nbsp; &nbsp; &nbsp; &nbsp; : Eng...</div>]]></description>
</item>
<item>
<title>[未监控] [六六大顺] May All Six Aspects of Life Go Smoothly 2026 2160p WEB-DL H.265 10bit HDR Vivid DDP2.0-HDVWEB[六六大顺/May All Six Aspects of Life Go Smoothly/六六大顺之囧途再现   [导演: 李孟武 主演: 李孟武 肖轶 安悦溪]][4.74 GB]</title>
<link>https://ptchdbits.co/details.php?id=551220</link>
<guid isPermaLink="false">4717eec02f46b2f4fb6d65496880942efb6304b0</guid>
<pubDate>Fri, 22 May 2026 15:51:34 +0800</pubDate>
<source>ptchdbits</source>
<enclosure url="https://ptchdbits.co/download.php?id=551220" type="application/x-bittorrent" />
<description><![CDATA[<p><b>🔗 来源:</b> ptchdbits</p>
<p><b>📅 发布时间:</b> Fri, 22 May 2026 15:51:34 +0800</p>
<p><b>⬇️ 详情:</b> <a href="https://ptchdbits.co/details.php?id=551220">https://ptchdbits.co/details.php?id=551220</a></p><hr/><p><b>📄 原文内容:</b></p>
<div><fieldset><legend> 引用 </legend><br /><b><span style="color: blue;">HDVideo官组作品，感谢原制作者发布。</span></b></fieldset><br /><br /><br /><img alt="image" src="https://www.themoviedb.org/t/p/w600_and_h900_face/eHkhTwKHpHL2h77wwfJ5CPGgstO.jpg" /><br />◎译　　名　六六大顺 / May All Six Aspects of Life Go Smoothly/六六大顺之囧途再现<br />◎片　　名　六六大顺<br />◎年　　代　2026<br />◎产　　地　中国大陆<br />◎类　　别　剧情<br />◎语　　言　汉语普通话<br />◎上映日期　2026-02-06(中国大陆)<br />◎豆瓣链接　<a class="faqlink" href="https://movie.douban.com/subject/37941931/">https://movie.douban.com/subject/37941931/</a><br />◎片　　长　93分钟<br />◎导　　演　李孟武 / 陈康太<br />◎编　　剧　李孟武 / 陈康太<br />◎主　　演　李孟武<br />　　　　　　肖轶<br />　　　　　　安悦溪<br />　　　　　　王喳喳<br />　　　　　　黄一飞<br />　　　　　　井凌潇<br />　　　　　　毕童<br />　　　　　　提爱民<br /><br />◎简　　介<br /><br />　　　　濒临破产的老板李大顺（李孟武 饰）为逆转绝境，与死磕项目的技术宅李谱（肖轶 饰）踏上寻“小分子水”之路，临时搭挡的组合囧况百出，还没发车就透露着热闹，并偶遇了身世可怜的少年六六……<br /><br /><fieldset><legend> 引用 </legend><br /><br />General<br />Complete name: May.All.Six.Aspects.of.Life.Go.Smoothly.2026.2160p.WEB-DL.H265.10bit.HDR.Vivid.DDP2.0-HDVWEB.mp4<br />Format: MPEG-4<br />File Size: 4.74 GiB<br />Duration: 1 h 33 min<br />Overall bit rate: 7 268 kb/s<br />Encoded date: 2026-05-03 15:00:45 UTC<br /><br />Video<br />ID: 1<br />Format: HEVC<br />Format/Info: High Efficiency Video Coding<br />Format profile: Main 10@L5@Main<br />HDR format: HDR Vivid, Version 1<br />Codec ID: hev1<br />Duration: 1 h 33 min<br />Bit rate: 6 978 kb/s<br />Width: 3 840 pixels<br />Height: 1 608 pixels<br />Display aspect ratio: 2.39:1<br />Frame rate mode: Constant<br />Frame rate: 24.000 FPS<br />Color space: YUV<br />Chroma subsampling: 4:2:0<br />Bit depth: 10 bits<br />Bits/(Pixel*Frame): 0.047<br />Stream size: 4.55 GiB (96%)<br />Color range: Limited<br />Color primaries: BT.2020<br />Transfer characteristics: PQ<br />Matrix coefficients: BT.2020 non-constant<br />Mastering display color primaries: R: x=0.708000 y=0.292000, G: x=0.170000 y=0.797000, B: x=0.130000 y=0.046000, White point: x=0.312700 y=0.329000<br />Mastering display luminance: min: 0.0001 cd/m2, max: 1000 cd/m2<br />Maximum Content Light Level: 528 cd/m2<br /><br />Audio #1<br />ID: 2<br />Format: E-AC-3<br />Format/Info: Enhanced AC-3<br />Commercial name: Dolby Digital Plus<br />Codec ID: ec-3<br />Duration: 1 h 33 min<br />Bit rate mode: Constant<br />Bit rate: 96.0 kb/s<br />Channel(s): 2<br />Channel layout: L R<br />Sampling rate: 48.0 kHz<br />Frame rate: 31.250 FPS (1536 SPF)<br />Compression mode: Lossy<br />Stream size: 64.1 MiB (1%)<br />Service kind: Complete Main<br />Default: Yes<br /><br />Audio #2<br />ID: 3<br />Format: AAC LC<br />Format/Info: Advanced Audio Codec Low Complexity<br />Commercial name: AAC<br />Codec ID: mp4a-40-2<br />Duration: 1 h 33 min<br />Bit rate mode: Variable<br />Bit rate: 192 kb/s<br />Channel(s): 2<br />Channel layout: L R<br />Sampling rate: 44.1 kHz<br />Frame rate: 43.066 FPS (1024 SPF)<br />Compression mode: Lossy<br />Stream size: 127 MiB (3%)<br />Language: Chinese<br />Default: Yes<br /></fieldset><br /><br /><br /><img alt="image" src="https://img.hdvideo.top/images/2026/05/03/pnoKu.png" /></div>]]></description>
</item>
<item>
<title>[未监控] [蜂蜜的针] No Other Love 2026 2160p WEB-DL HDR Vivid H.265 AAC-HDVWEB[蜂蜜的针 | 又名: 没有别的爱 | 爱奇艺4K HDR | 高码率版本 | 主演: 袁泉 / 耿乐 / 宁静 / 俞飞鸿 / 齐溪 ][6.57 GB]</title>
<link>https://ptchdbits.co/details.php?id=551215</link>
<guid isPermaLink="false">7dc56f29eb04f2c9608b40dd5269eb3be1f2fecc</guid>
<pubDate>Fri, 22 May 2026 15:28:58 +0800</pubDate>
<source>ptchdbits</source>
<enclosure url="https://ptchdbits.co/download.php?id=551215" type="application/x-bittorrent" />
<description><![CDATA[<p><b>🔗 来源:</b> ptchdbits</p>
<p><b>📅 发布时间:</b> Fri, 22 May 2026 15:28:58 +0800</p>
<p><b>⬇️ 详情:</b> <a href="https://ptchdbits.co/details.php?id=551215">https://ptchdbits.co/details.php?id=551215</a></p><hr/><p><b>📄 原文内容:</b></p>
<div><fieldset><legend> 引用 </legend><br /><b><span style="color: blue;">HDVideo官组作品，感谢原制作者发布。</span></b></fieldset><br /><br /><br /><img alt="image" src="https://img.hdvideo.top/images/2026/05/06/prxLP.webp" /><br />◎译　　名　没有别的爱/No Other Love<br />◎片　　名　蜂蜜的针<br />◎年　　代　2026<br />◎产　　地　中国大陆<br />◎类　　别　爱情/悬疑/犯罪<br />◎语　　言　汉语普通话<br />◎上映日期　2026-03-28(中国大陆)<br />◎IMDb链接 &nbsp;<a class="faqlink" href="https://www.imdb.com/title/tt5024764/">https://www.imdb.com/title/tt5024764/</a><br />◎豆瓣评分　7.1/10 from 31135 users<br />◎豆瓣链接　<a class="faqlink" href="https://douban.com/subject/26022233/">https://douban.com/subject/26022233/</a><br />◎片　　长　119分钟<br />◎导　　演　袁梅 Mei Yuan<br />◎编　　剧　李樯 Qiang Li &nbsp;/ 英格丽特·诺尔 Ingrid Noll<br />◎主　　演　袁泉 Quan Yuan<br />　　　　　　耿乐 Le Geng<br />　　　　　　宁静 Jing Ning<br />　　　　　　俞飞鸿 Faye Yu<br />　　　　　　齐溪 Xi Qi<br />　　　　　　陈冲 Joan Chen<br />　　　　　　孙悦 Yue Sun<br />　　　　　　史可 Ke Shi<br />　　　　　　余皑磊 Ailei Yu<br />　　　　　　李大光 Daguang Li<br />　　　　　　杨子姗 Zishan Yang<br />　　　　　　刘雅瑟 Yase Liu<br />　　　　　　窦靖童 Leah Dou<br />　　　　　　马书良 Shuliang Ma<br />　　　　　　焦刚 Gang Jiao<br />　　　　　　胡明 Ming Hu<br />　　　　　　王森 Sen Wang<br />　　　　　　涂经纬 Jingwei Tu<br /><br />◎简　　介<br /><br />　　<br />　　性格孤僻的农科院研究员支宁（袁泉 饰），在爱情里四处碰壁。在一次文学讲座上，她对作家寇逸（耿乐 饰）一见钟情，从此陷入偏执爱情的她开始悄悄跟在寇逸身后……在偶然的契机下，支宁应寇逸之邀加入一场旅行。本以为是靠近心意的“爱情”之旅，却没料到途中变故接踵而至，逐渐成为了一场亡命之行。蹊跷的命案接连发生，所有人和事都在朝着完全失控的方向狂奔……<br />　　<br />　　以爱之名的潘多拉魔盒已然开启，当爱意被执念裹挟，人究竟会为了守住所谓的“爱”，突破多少不可逾越的边界？<br /><fieldset><legend> 引用 </legend><br /><br /><br />General<br />Complete name &nbsp; &nbsp; &nbsp; &nbsp; &nbsp; &nbsp; &nbsp; &nbsp; &nbsp; &nbsp; &nbsp; &nbsp; &nbsp; &nbsp;: 蜂蜜的针.No.Other.Love.2026.2160p.WEB-DL.HDR.Vivid.H265.AAC-HDVWEB.mp4<br />Format &nbsp; &nbsp; &nbsp; &nbsp; &nbsp; &nbsp; &nbsp; &nbsp; &nbsp; &nbsp; &nbsp; &nbsp; &nbsp; &nbsp; &nbsp; &nbsp; &nbsp; : MPEG-4<br />Format profile &nbsp; &nbsp; &nbsp; &nbsp; &nbsp; &nbsp; &nbsp; &nbsp; &nbsp; &nbsp; &nbsp; &nbsp; &nbsp; : Base Media<br />Codec ID &nbsp; &nbsp; &nbsp; &nbsp; &nbsp; &nbsp; &nbsp; &nbsp; &nbsp; &nbsp; &nbsp; &nbsp; &nbsp; &nbsp; &nbsp; &nbsp; : isom (isom/iso2/mp41)<br />File size &nbsp; &nbsp; &nbsp; &nbsp; &nbsp; &nbsp; &nbsp; &nbsp; &nbsp; &nbsp; &nbsp; &nbsp; &nbsp; &nbsp; &nbsp; &nbsp;: 6.57 GiB<br />Duration &nbsp; &nbsp; &nbsp; &nbsp; &nbsp; &nbsp; &nbsp; &nbsp; &nbsp; &nbsp; &nbsp; &nbsp; &nbsp; &nbsp; &nbsp; &nbsp; : 1 h 59 min<br />Overall bit rate mode &nbsp; &nbsp; &nbsp; &nbsp; &nbsp; &nbsp; &nbsp; &nbsp; &nbsp; &nbsp;: Variable<br />Overall bit rate &nbsp; &nbsp; &nbsp; &nbsp; &nbsp; &nbsp; &nbsp; &nbsp; &nbsp; &nbsp; &nbsp; &nbsp; : 7 906 kb/s<br />Frame rate &nbsp; &nbsp; &nbsp; &nbsp; &nbsp; &nbsp; &nbsp; &nbsp; &nbsp; &nbsp; &nbsp; &nbsp; &nbsp; &nbsp; &nbsp; : 24.000 FPS<br />Writing application &nbsp; &nbsp; &nbsp; &nbsp; &nbsp; &nbsp; &nbsp; &nbsp; &nbsp; &nbsp; &nbsp;: Lavf61.9.100<br />Cover &nbsp; &nbsp; &nbsp; &nbsp; &nbsp; &nbsp; &nbsp; &nbsp; &nbsp; &nbsp; &nbsp; &nbsp; &nbsp; &nbsp; &nbsp; &nbsp; &nbsp; &nbsp;: Yes<br />Cover type &nbsp; &nbsp; &nbsp; &nbsp; &nbsp; &nbsp; &nbsp; &nbsp; &nbsp; &nbsp; &nbsp; &nbsp; &nbsp; &nbsp; &nbsp; : Cover<br /><br />Video<br />ID &nbsp; &nbsp; &nbsp; &nbsp; &nbsp; &nbsp; &nbsp; &nbsp; &nbsp; &nbsp; &nbsp; &nbsp; &nbsp; &nbsp; &nbsp; &nbsp; &nbsp; &nbsp; &nbsp; : 1<br />Format &nbsp; &nbsp; &nbsp; &nbsp; &nbsp; &nbsp; &nbsp; &nbsp; &nbsp; &nbsp; &nbsp; &nbsp; &nbsp; &nbsp; &nbsp; &nbsp; &nbsp; : HEVC<br />Format/Info &nbsp; &nbsp; &nbsp; &nbsp; &nbsp; &nbsp; &nbsp; &nbsp; &nbsp; &nbsp; &nbsp; &nbsp; &nbsp; &nbsp; &nbsp;: High Efficiency Video Coding<br />Format profile &nbsp; &nbsp; &nbsp; &nbsp; &nbsp; &nbsp; &nbsp; &nbsp; &nbsp; &nbsp; &nbsp; &nbsp; &nbsp; : Main 10@L5@Main<br />HDR format &nbsp; &nbsp; &nbsp; &nbsp; &nbsp; &nbsp; &nbsp; &nbsp; &nbsp; &nbsp; &nbsp; &nbsp; &nbsp; &nbsp; &nbsp; : HDR Vivid, Version 1<br />Codec ID &nbsp; &nbsp; &nbsp; &nbsp; &nbsp; &nbsp; &nbsp; &nbsp; &nbsp; &nbsp; &nbsp; &nbsp; &nbsp; &nbsp; &nbsp; &nbsp; : hev1<br />Codec ID/Info &nbsp; &nbsp; &nbsp; &nbsp; &nbsp; &nbsp; &nbsp; &nbsp; &nbsp; &nbsp; &nbsp; &nbsp; &nbsp; &nbsp;: High Efficiency Video Coding<br />Duration &nbsp; &nbsp; &nbsp; &nbsp; &nbsp; &nbsp; &nbsp; &nbsp; &nbsp; &nbsp; &nbsp; &nbsp; &nbsp; &nbsp; &nbsp; &nbsp; : 1 h 59 min<br />Bit rate &nbsp; &nbsp; &nbsp; &nbsp; &nbsp; &nbsp; &nbsp; &nbsp; &nbsp; &nbsp; &nbsp; &nbsp; &nbsp; &nbsp; &nbsp; &nbsp; : 7 705 kb/s<br />Width &nbsp; &nbsp; &nbsp; &nbsp; &nbsp; &nbsp; &nbsp; &nbsp; &nbsp; &nbsp; &nbsp; &nbsp; &nbsp; &nbsp; &nbsp; &nbsp; &nbsp; &nbsp;: 3 840 pixels<br />Height &nbsp; &nbsp; &nbsp; &nbsp; &nbsp; &nbsp; &nbsp; &nbsp; &nbsp; &nbsp; &nbsp; &nbsp; &nbsp; &nbsp; &nbsp; &nbsp; &nbsp; : 1 608 pixels<br />Display aspect ratio &nbsp; &nbsp; &nbsp; &nbsp; &nbsp; &nbsp; &nbsp; &nbsp; &nbsp; &nbsp; : 2.39:1<br />Frame rate mode &nbsp; &nbsp; &nbsp; &nbsp; &nbsp; &nbsp; &nbsp; &nbsp; &nbsp; &nbsp; &nbsp; &nbsp; &nbsp;: Constant<br />Frame rate &nbsp; &nbsp; &nbsp; &nbsp; &nbsp; &nbsp; &nbsp; &nbsp; &nbsp; &nbsp; &nb...</div>]]></description>
</item>
<item>
<title>[已拥有] [伊甸 蓝光原盘 压制 简体] Eden 2024 BluRay 1080p x265 10bit DTS-HD MA 5.1-UBits[伊甸 蓝光原盘 压制 简体/繁体/简英双语/繁英双语][10.27 GB]</title>
<link>https://audiences.me/details.php?id=668106</link>
<guid isPermaLink="false">313445817de9f4d791bc642c3c379cce59b54c88</guid>
<pubDate>Fri, 22 May 2026 14:12:34 +0800</pubDate>
<source>audiences</source>
<enclosure url="https://audiences.me/download.php?id=668106" type="application/x-bittorrent" />
<description><![CDATA[<p><b>🔗 来源:</b> audiences</p>
<p><b>📅 发布时间:</b> Fri, 22 May 2026 14:12:34 +0800</p>
<p><b>⬇️ 详情:</b> <a href="https://audiences.me/details.php?id=668106">https://audiences.me/details.php?id=668106</a></p>]]></description>
</item>
<item>
<title>[未监控] [东北奇妙故事之摇篮曲] Dong Bei Qi Miao Gu Shi Zhi Yao Lan Qu 2026 2160p WEB-DL H.265 10bit HDR Vivid DDP5.1-HDVWEB[东北奇妙故事之摇篮曲/东北奇妙物语系列 【导演: 刘知焕 主演: 李明 张雪菡 冯筱童】 HDVWEB小组作品][6.25 GB]</title>
<link>https://ptchdbits.co/details.php?id=551192</link>
<guid isPermaLink="false">153b9225a5d61529339cdab77d68ba3e178e63dc</guid>
<pubDate>Fri, 22 May 2026 14:19:31 +0800</pubDate>
<source>ptchdbits</source>
<enclosure url="https://ptchdbits.co/download.php?id=551192" type="application/x-bittorrent" />
<description><![CDATA[<p><b>🔗 来源:</b> ptchdbits</p>
<p><b>📅 发布时间:</b> Fri, 22 May 2026 14:19:31 +0800</p>
<p><b>⬇️ 详情:</b> <a href="https://ptchdbits.co/details.php?id=551192">https://ptchdbits.co/details.php?id=551192</a></p><hr/><p><b>📄 原文内容:</b></p>
<div><fieldset><legend> 引用 </legend><br /><b><span style="color: blue;">HDVideo官组作品，感谢原制作者发布。</span></b></fieldset><br /><br /><br /><img alt="image" src="https://img2.pixhost.to/images/7696/722908544_ptgen_poster_kzkmjf.jpg" /><br />◎译　　名　东北奇妙故事之摇篮曲 / 东北奇妙故事2/东北奇妙物语系列<br />◎片　　名　东北奇妙故事之摇篮曲<br />◎年　　代　2026<br />◎产　　地　中国大陆<br />◎类　　别　剧情 / 悬疑 / 惊悚 / 奇幻<br />◎语　　言　汉语普通话<br />◎上映日期　2026-05-06(中国大陆网络)<br />◎豆瓣链接　<a class="faqlink" href="https://movie.douban.com/subject/38433127/">https://movie.douban.com/subject/38433127/</a><br />◎片　　长　61分钟<br />◎导　　演　刘知焕 / 乔涵<br />◎编　　剧　黄彦霏<br />◎主　　演　李明<br />　　　　　　张雪菡<br />　　　　　　冯筱童<br />◎简　　介<br />　　　　殡葬民俗与悬疑探案交织，借一座老宅、一口古井，揭开三代人缠绕的执念与秘密。影片以阿尔茨海默病家庭为切口，用科学精神破除迷信迷障，在悬疑与反转中传递“生命落幕，爱意不散”的温暖主题。<br /><br /><fieldset><legend> 引用 </legend><br /><br />General<br />Complete name: Dong.Bei.Qi.Miao.Gu.Shi.Zhi.Yao.Lan.Qu.2026.2160p.WEB-DL.H265.10bit.HDR.Vivid.DDP5.1-HDVWEB.mp4<br />Format: MPEG-4<br />File Size: 6.25 GiB<br />Duration: 1 h 0 min<br />Overall bit rate: 14.7 Mb/s<br />Writing application: Lavf60.21.101<br /><br />Video<br />ID: 1<br />Format: HEVC<br />Format/Info: High Efficiency Video Coding<br />Format profile: Main 10@L5@Main<br />HDR format: HDR Vivid, Version 1<br />Codec ID: hev1<br />Duration: 1 h 0 min<br />Bit rate: 14.2 Mb/s<br />Width: 3 840 pixels<br />Height: 1 608 pixels<br />Display aspect ratio: 2.39:1<br />Frame rate mode: Constant<br />Frame rate: 24.000 FPS<br />Color space: YUV<br />Chroma subsampling: 4:2:0<br />Bit depth: 10 bits<br />Bits/(Pixel*Frame): 0.096<br />Stream size: 6.06 GiB (97%)<br />Color range: Limited<br />Color primaries: BT.2020<br />Transfer characteristics: PQ<br />Matrix coefficients: BT.2020 non-constant<br />Mastering display color primaries: R: x=0.708000 y=0.292000, G: x=0.170000 y=0.797000, B: x=0.130000 y=0.046000, White point: x=0.312700 y=0.329000<br />Mastering display luminance: min: 0.0001 cd/m2, max: 1000 cd/m2<br />Maximum Content Light Level: 534 cd/m2<br /><br />Audio #1<br />ID: 2<br />Format: E-AC-3<br />Format/Info: Enhanced AC-3<br />Commercial name: Dolby Digital Plus<br />Codec ID: ec-3<br />Duration: 1 h 0 min<br />Bit rate mode: Constant<br />Bit rate: 256 kb/s<br />Channel(s): 6<br />Channel layout: L R C LFE Ls Rs<br />Sampling rate: 48.0 kHz<br />Frame rate: 31.250 FPS (1536 SPF)<br />Compression mode: Lossy<br />Stream size: 112 MiB (2%)<br />Title: 杜比音效,普通话<br />Language: Chinese<br />Service kind: Complete Main<br />Default: No<br /><br />Audio #2<br />ID: 3<br />Format: AAC LC<br />Format/Info: Advanced Audio Codec Low Complexity<br />Commercial name: AAC<br />Codec ID: mp4a-40-2<br />Duration: 1 h 0 min<br />Bit rate mode: Constant<br />Bit rate: 192 kb/s<br />Channel(s): 2<br />Channel layout: L R<br />Sampling rate: 44.1 kHz<br />Frame rate: 43.066 FPS (1024 SPF)<br />Compression mode: Lossy<br />Stream size: 83.6 MiB (1%)<br />Title: 普通话<br />Language: Chinese<br />Default: Yes<br /><br />Text<br />ID: 4<br />Format: Timed Text<br />Muxing mode: sbtl<br />Codec ID: tx3g<br />Duration: 59 min 35 s<br />Bit rate: 42 b/s<br />Stream size: 18.5 KiB (0%)<br />Title: 简体中文<br />Language: Chinese<br />Default: Yes<br />Forced: No</fieldset><br /><br /><br /><img alt="image" src="https://img.hdvideo.top/images/2026/05/06/prKqO.png" /></div>]]></description>
</item>
<item>
<title>[未监控] [惊蛰无声] Scare Out 2026 2160p WEB-DL H.265 10bit HDR Vivid DDP5.1-HDVWEB[惊蛰无声/Scare Out/惊蛰   【导演: 张艺谋 主演: 易烊千玺 朱一龙 宋佳】 HDVWEB小组作品][6.50 GB]</title>
<link>https://ptchdbits.co/details.php?id=551145</link>
<guid isPermaLink="false">e48b98c469c8b13ac613cd0dfc4d435041342dbd</guid>
<pubDate>Fri, 22 May 2026 11:52:10 +0800</pubDate>
<source>ptchdbits</source>
<enclosure url="https://ptchdbits.co/download.php?id=551145" type="application/x-bittorrent" />
<description><![CDATA[<p><b>🔗 来源:</b> ptchdbits</p>
<p><b>📅 发布时间:</b> Fri, 22 May 2026 11:52:10 +0800</p>
<p><b>⬇️ 详情:</b> <a href="https://ptchdbits.co/details.php?id=551145">https://ptchdbits.co/details.php?id=551145</a></p><hr/><p><b>📄 原文内容:</b></p>
<div><fieldset><legend> 引用 </legend><br /><b><span style="color: blue;">HDVideo官组作品，感谢原制作者发布。</span></b></fieldset><br /><br /><br /><img alt="image" src="https://img2.pixhost.to/images/8074/729149510_ptgen_poster_w5b4ni.jpg" /><br />◎译　　名　惊蛰无声 / Scare Out/惊蛰<br />◎片　　名　惊蛰无声<br />◎年　　代　2026<br />◎产　　地　中国大陆<br />◎类　　别　剧情 / 犯罪<br />◎语　　言　汉语普通话<br />◎上映日期　2026-02-17(中国大陆)<br />◎IMDb链接 &nbsp;<a class="faqlink" href="https://www.imdb.com/title/tt36535318/">https://www.imdb.com/title/tt36535318/</a><br />◎IMDb评分 &nbsp;5.5/10 from 487 users<br />◎豆瓣评分　6.0/10 from 231695 users<br />◎豆瓣链接　<a class="faqlink" href="https://movie.douban.com/subject/37242440/">https://movie.douban.com/subject/37242440/</a><br />◎片　　长　104分钟<br />◎导　　演　张艺谋<br />◎编　　剧　陈亮<br />◎主　　演　易烊千玺<br />　　　　　　朱一龙<br />　　　　　　宋佳<br />　　　　　　雷佳音<br />　　　　　　杨幂<br />　　　　　　张译<br />　　　　　　刘诗诗<br />　　　　　　刘耀文<br />　　　　　　林博洋<br />　　　　　　潘斌龙<br />　　　　　　姚安娜<br />　　　　　　段奕宏<br />　　　　　　陈明昊<br />　　　　　　江奇霖<br />　　　　　　王圣迪<br />　　　　　　黄炎<br />　　　　　　飞凡<br />　　　　　　蒋鹏宇<br />　　　　　　孟丹青<br /><br />◎简　　介<br /><br />　　　　你看不见的地方，谍战从未停止交锋！我国最新战机的涉密信息外泄，国家安全面临威胁，国安小组迅速行动抓捕间谍，在信任与背叛的漩涡中，一场惊心博弈悄然上演……<br /><br /><fieldset><legend> 引用 </legend><br /><br />General<br />Complete name: Scare.Out.2026.2160p.WEB-DL.H265.10bit.HDR.Vivid.DDP5.1-HDVWEB.mp4<br />Format: MPEG-4<br />File Size: 6.50 GiB<br />Duration: 1 h 44 min<br />Overall bit rate: 8 933 kb/s<br />Encoded date: 2026-05-22 03:16:34 UTC<br /><br />Video<br />ID: 1<br />Format: HEVC<br />Format/Info: High Efficiency Video Coding<br />Format profile: Main 10@L5@Main<br />HDR format: HDR Vivid, Version 1<br />Codec ID: hev1<br />Duration: 1 h 44 min<br />Bit rate: 8 483 kb/s<br />Width: 3 840 pixels<br />Height: 1 608 pixels<br />Display aspect ratio: 2.39:1<br />Frame rate mode: Constant<br />Frame rate: 24.000 FPS<br />Color space: YUV<br />Chroma subsampling: 4:2:0<br />Bit depth: 10 bits<br />Bits/(Pixel*Frame): 0.057<br />Stream size: 6.17 GiB (95%)<br />Color range: Limited<br />Color primaries: BT.2020<br />Transfer characteristics: PQ<br />Matrix coefficients: BT.2020 non-constant<br />Mastering display color primaries: R: x=0.708000 y=0.292000, G: x=0.170000 y=0.797000, B: x=0.130000 y=0.046000, White point: x=0.312700 y=0.329000<br />Mastering display luminance: min: 0.0001 cd/m2, max: 1000 cd/m2<br />Maximum Content Light Level: 528 cd/m2<br /><br />Audio #1<br />ID: 2<br />Format: AAC LC<br />Format/Info: Advanced Audio Codec Low Complexity<br />Commercial name: AAC<br />Codec ID: mp4a-40-2<br />Duration: 1 h 44 min<br />Bit rate mode: Variable<br />Bit rate: 192 kb/s<br />Channel(s): 2<br />Channel layout: L R<br />Sampling rate: 44.1 kHz<br />Frame rate: 43.066 FPS (1024 SPF)<br />Compression mode: Lossy<br />Stream size: 141 MiB (2%)<br />Default: Yes<br /><br />Audio #2<br />ID: 3<br />Format: E-AC-3<br />Format/Info: Enhanced AC-3<br />Commercial name: Dolby Digital Plus<br />Codec ID: ec-3<br />Duration: 1 h 44 min<br />Bit rate mode: Constant<br />Bit rate: 256 kb/s<br />Channel(s): 6<br />Channel layout: L R C LFE Ls Rs<br />Sampling rate: 48.0 kHz<br />Frame rate: 31.250 FPS (1536 SPF)<br />Compression mode: Lossy<br />Stream size: 191 MiB (3%)<br />Title: audio1<br />Service kind: Complete Main<br />Default: Yes<br /></fieldset><br /><br /><br /><img alt="image" src="https://img.hdvideo.top/images/2026/05/22/ptvFl.png" /></div>]]></description>
</item>
<item>
<title>[已拥有] [复仇双雄] Vengeance 2026 1080p Amazon WEB-DL AVC DDP 5.1-DBTV[复仇双雄 / Venganza / Vengeance (2026)][3.61 GB]</title>
<link>https://ptchdbits.co/details.php?id=551174</link>
<guid isPermaLink="false">5b3f56759a6bf8ff614752a387e6459bd9f025f0</guid>
<pubDate>Fri, 22 May 2026 13:36:21 +0800</pubDate>
<source>ptchdbits</source>
<enclosure url="https://ptchdbits.co/download.php?id=551174" type="application/x-bittorrent" />
<description><![CDATA[<p><b>🔗 来源:</b> ptchdbits</p>
<p><b>📅 发布时间:</b> Fri, 22 May 2026 13:36:21 +0800</p>
<p><b>⬇️ 详情:</b> <a href="https://ptchdbits.co/details.php?id=551174">https://ptchdbits.co/details.php?id=551174</a></p><hr/><p><b>📄 原文内容:</b></p>
<div><fieldset><legend> 引用 </legend><br /><b><span style="color: blue;">HDDolby官组作品，源站种子ID：242125，感谢原制作者发布。</span></b></fieldset><br /><br /><br /><img alt="image" src="https://image.tmdb.org/t/p/w500/depsxgtgZQ0anU3YhUcjfOjp8ph.jpg" /><br /><br />◎译　　名　复仇双雄 / Venganza / Vengeance<br />◎上映日期　2026-02-26<br />◎产　　地　United States of America, Spain<br />◎类　　别　动作 / 惊悚<br />◎语　　言　es<br />◎时　　长　103分钟<br />◎IMDb链接 &nbsp;<a class="faqlink" href="https://www.imdb.com/title/tt37989803/">https://www.imdb.com/title/tt37989803/</a><br />◎豆瓣链接 &nbsp;<a class="faqlink" href="https://movie.douban.com/subject/36936143/">https://movie.douban.com/subject/36936143/</a><br />◎TMDb链接 &nbsp;<a class="faqlink" href="https://www.themoviedb.org/movie/1613798">https://www.themoviedb.org/movie/1613798</a><br />◎TMDb评分 &nbsp;7.383/10 from 205 users<br />◎导　　演　Rodrigo Valdes<br />◎主　　演　奥马尔·查帕罗<br />　　　　 &nbsp;　Alejandro Speitzer<br />　　　　 &nbsp;　葆拉·努涅斯<br />　　　　 &nbsp;　Natalia Solián<br />　　　　 &nbsp;　Luis Alberti<br />　　　　 &nbsp;　伊阿祖娅·拉里奥斯<br />　　　　 &nbsp;　Lizeth Selene<br />　　　　 &nbsp;　Gustavo Sánchez Parra<br />　　　　 &nbsp;　Vasil Simeonov<br />　　　　 &nbsp;　Manuel Cruz Vivas<br /><br />◎简　　介<br /><br />　　照片的核心是卡洛斯和米格尔，他们是墨西哥特种部队最好的朋友和精锐士兵。当卡洛斯目睹妻子被残忍杀害时，他们的生活发生了转折。卡洛斯被悲伤和对正义的渴望所吞噬，米格尔陪伴在他身边，卡洛斯带着改变人生的彩票和坚定不移的决心，开始了一场危险的复仇之旅。<br /><br /><br /><fieldset><legend> 引用 </legend><br />General<br /> Unique ID &nbsp; &nbsp; &nbsp; &nbsp; &nbsp; &nbsp; &nbsp; &nbsp; &nbsp; &nbsp; &nbsp; &nbsp; &nbsp; &nbsp; &nbsp; &nbsp;: 271880559959433115117520690238515220844<br /> Complete name &nbsp; &nbsp; &nbsp; &nbsp; &nbsp; &nbsp; &nbsp; &nbsp; &nbsp; &nbsp; &nbsp; &nbsp; &nbsp; &nbsp;: Vengeance.2026.1080p.Amazon.WEB-DL.AVC.DDP.5.1-DBTV.mkv<br /> Format &nbsp; &nbsp; &nbsp; &nbsp; &nbsp; &nbsp; &nbsp; &nbsp; &nbsp; &nbsp; &nbsp; &nbsp; &nbsp; &nbsp; &nbsp; &nbsp; &nbsp; : Matroska<br /> Format version &nbsp; &nbsp; &nbsp; &nbsp; &nbsp; &nbsp; &nbsp; &nbsp; &nbsp; &nbsp; &nbsp; &nbsp; &nbsp; : Version 4<br /> File size &nbsp; &nbsp; &nbsp; &nbsp; &nbsp; &nbsp; &nbsp; &nbsp; &nbsp; &nbsp; &nbsp; &nbsp; &nbsp; &nbsp; &nbsp; &nbsp;: 3.61 GiB<br /> Duration &nbsp; &nbsp; &nbsp; &nbsp; &nbsp; &nbsp; &nbsp; &nbsp; &nbsp; &nbsp; &nbsp; &nbsp; &nbsp; &nbsp; &nbsp; &nbsp; : 1 h 43 min<br /> Overall bit rate &nbsp; &nbsp; &nbsp; &nbsp; &nbsp; &nbsp; &nbsp; &nbsp; &nbsp; &nbsp; &nbsp; &nbsp; : 4 987 kb/s<br /> Frame rate &nbsp; &nbsp; &nbsp; &nbsp; &nbsp; &nbsp; &nbsp; &nbsp; &nbsp; &nbsp; &nbsp; &nbsp; &nbsp; &nbsp; &nbsp; : 24.000 FPS<br /> Title &nbsp; &nbsp; &nbsp; &nbsp; &nbsp; &nbsp; &nbsp; &nbsp; &nbsp; &nbsp; &nbsp; &nbsp; &nbsp; &nbsp; &nbsp; &nbsp; &nbsp; &nbsp;: 复仇<br /> Encoded date &nbsp; &nbsp; &nbsp; &nbsp; &nbsp; &nbsp; &nbsp; &nbsp; &nbsp; &nbsp; &nbsp; &nbsp; &nbsp; &nbsp; : 2026-05-20 05:29:12 UTC<br /> Writing application &nbsp; &nbsp; &nbsp; &nbsp; &nbsp; &nbsp; &nbsp; &nbsp; &nbsp; &nbsp; &nbsp;: mkvmerge v94.0 ('Initiate') 64-bit<br /> Writing library &nbsp; &nbsp; &nbsp; &nbsp; &nbsp; &nbsp; &nbsp; &nbsp; &nbsp; &nbsp; &nbsp; &nbsp; &nbsp;: libebml v1.4.5 + libmatroska v1.7.1 / Lavf62.3.100<br /> Cover &nbsp; &nbsp; &nbsp; &nbsp; &nbsp; &nbsp; &nbsp; &nbsp; &nbsp; &nbsp; &nbsp; &nbsp; &nbsp; &nbsp; &nbsp; &nbsp; &nbsp; &nbsp;: Yes<br /> Attachments &nbsp; &nbsp; &nbsp; &nbsp; &nbsp; &nbsp; &nbsp; &nbsp; &nbsp; &nbsp; &nbsp; &nbsp; &nbsp; &nbsp; &nbsp;: cover.png<br /><br />Video<br /> Format &nbsp; &nbsp; &nbsp; &nbsp; &nbsp; &nbsp; &nbsp; &nbsp; &nbsp; &nbsp; &nbsp; &nbsp; &nbsp; &nbsp; &nbsp; &nbsp; &nbsp; : AVC<br /> Format/Info &nbsp; &nbsp; &nbsp; &nbsp; &nbsp; &nbsp; &nbsp; &nbsp; &nbsp; &nbsp; &nbsp; &nbsp; &nbsp; &nbsp; &nbsp;: Advanced Video Codec<br /> Format profile &nbsp; &nbsp; &nbsp; &nbsp; &nbsp; &nbsp; &nbsp; &nbsp; &nbsp; &nbsp; &nbsp; &nbsp; &nbsp; : High@L4<br /> Format settings &nbsp; &nbsp; &nbsp; &nbsp; &nbsp; &nbsp; &nbsp; &nbsp; &nbsp; &nbsp; &nbsp; &nbsp; &nbsp;: CABAC / 4 Ref Frames<br /> Format settings, CABAC &nbsp; &nbsp; &nbsp; &nbsp; &nbsp; &nbsp; &nbsp; &nbsp; &nbsp; : Yes<br /> Format settings, Reference frames &nbsp; &nbsp; &nbsp; &nbsp;: 4 frames<br /> Codec ID &nbsp; &nbsp; &nbsp; &nbsp; &nbsp; &nbsp; &nbsp; &nbsp; &nbsp; &nbsp; &nbsp; &nbsp; &nbsp; &nbsp; &nbsp; &nbsp; : V_MPEG4/ISO/AVC<br /> Duration &nbsp; &nbsp; &nbsp; &nbsp; &nbsp; &nbsp; &nbsp; &nbsp; &nbsp; &nbsp; &nbsp; &nbsp; &nbsp; &nbsp; &nbsp; &nbsp; : 1 h 43 min<br /> Bit rate &nbsp; &nbsp; &nbsp; &nbsp; &nbsp; &nbsp; &nbsp; &nbsp; &nbsp; &nbsp; &nbsp; &nbsp; &nbsp; &nbsp; &nbsp; &nbsp; : 3 686 kb/s<br /> Width &nbsp; &nbsp; &nbsp; &nbsp; &nbsp; &nbsp; &nbsp; &nbsp; &nbsp; &nbsp; &nbsp; &nbsp; &nbsp; &nbsp; &nbsp; &nbsp; &nbsp; &nbsp;: 1920 pixels<br /> Height &nbsp; &nbsp; &nbsp; &nbsp; &nbsp; &nbsp; &nbsp; &nbsp; &nbsp; &nbsp; &nbsp; &nbsp; &nbsp; &nbsp; &nbsp; &nbsp; &nbsp; : 960 pixels<br /> Display aspect ratio &nbsp; &nbsp; &nbsp; &nbsp; &nbsp; &nbsp; &nbsp; &nbsp; &nbsp; &nbsp; : 2.000<br /> Frame rate mode &nbsp; &nbsp; &nbsp; &nbsp; &nbsp; &n...</div>]]></description>
</item>
<item>
<title>[未监控] [伦尼的故事[CC标准收藏版Spine #1312] Lenny 1974 4K Remaster Criterion Collection BluRay 1080p DD1.0 x264-BMDru[伦尼的故事[CC标准收藏版Spine #1312|4K修复版|奥斯卡金像奖|金棕榈奖|正片及花絮|原盘压制|含评论简繁英字幕]][9.82 GB]</title>
<link>https://ptchdbits.co/details.php?id=551164</link>
<guid isPermaLink="false">4dca6f54fba80739b3dcf98863c9980ee953fbf7</guid>
<pubDate>Fri, 22 May 2026 13:10:16 +0800</pubDate>
<source>ptchdbits</source>
<enclosure url="https://ptchdbits.co/download.php?id=551164" type="application/x-bittorrent" />
<description><![CDATA[<p><b>🔗 来源:</b> ptchdbits</p>
<p><b>📅 发布时间:</b> Fri, 22 May 2026 13:10:16 +0800</p>
<p><b>⬇️ 详情:</b> <a href="https://ptchdbits.co/details.php?id=551164">https://ptchdbits.co/details.php?id=551164</a></p><hr/><p><b>📄 原文内容:</b></p>
<div><img alt="image" src="https://images.static-bluray.com/movies/covers/133472_front.jpg" /><br /><br />◎译　　名　伦尼的故事 / 伦尼的故事<br />◎片　　名　Lenny<br />◎年　　代　1974<br />◎产　　地　美国<br />◎类　　别　剧情 / 传记<br />◎语　　言　英语<br />◎上映日期　1974-11-10<br />◎IMDb评分  7.5/10 from 19378 users<br />◎IMDb链接  <a class="faqlink" href="https://www.imdb.com/title/tt0071746/">https://www.imdb.com/title/tt0071746/</a><br />◎豆瓣评分　8.1/10 from 1148 users<br />◎豆瓣链接　<a class="faqlink" href="https://movie.douban.com/subject/1294087/">https://movie.douban.com/subject/1294087/</a><br />◎片　　长　111 分钟<br />◎导　　演  鲍勃·福斯 Bob Fosse<br />◎编　　剧  朱利安·巴里 Julian Barry<br />◎主　　演　达斯汀·霍夫曼 Dustin Hoffman<br />　　　　　　瓦莱丽·佩莱恩<br />　　　　　　简·曼妮儿<br />　　　　　　斯坦利·贝克<br />　　　　　　Frankie Man<br />　　　　　　拉舍尔·诺维科芙<br />　　　　　　加里·莫顿<br />　　　　　　盖伊·伦尼<br />　　　　　　Michele Yonge<br />　　　　　　凯瑟琳·威特<br />　　　　　　Monroe Myers<br />　　　　　　John DiSanti<br />　　　　　　Mickey Gatlin<br />　　　　　　Martin Begley<br />　　　　　　马克·哈里斯<br /><br />◎简　　介<br /><br />  具争议性和开创性的喜剧演员伦尼布鲁斯的传记电影，全片追溯伦尼布鲁斯反-政-府的政治观点。全片以倒叙的手法，分别从母亲、妻子和经纪人的角度出发讲叙了喜剧演员伦尼布鲁斯的一生。<br />  在伦尼布鲁斯早年还未出名之际，那时他只是个普普通通的喜剧演员，他遇到了跳脱-衣-舞的哈妮，并爱上了她。不顾经纪人阿蒂和母亲的反对，伦尼坚持同哈妮举行了婚礼，并与老闆发生争执，因为他坚持要按照自己的个人风格进行表演，老闆一怒之下将他解雇。这时，哈妮受伤住进了医院，伦尼在探病期间同一个护士关係暧昧，对此有所察觉的哈妮同伦尼吵闹了一番。后来，他们搬到了加尼福尼亚。虽然伦尼极力反对，哈妮还是重操旧业，当起了脱-衣-舞女。<br /><br />  伦尼沉迷于吸毒不能自拔，哈妮生下了一个孩子，夫妻间常为吸毒的事而爆发激烈的争吵。有了孩子的第二年，他们分手了。因有贩卖毒品的嫌疑，哈妮被捕入狱。伦尼此时却因发挥出自己的喜剧天才获得观众认可，在事业上有了突破，成为红极一时的明星，但知名度却并未改善伦尼的境遇......<br /><br />◎获奖情况<br /><br />第47届奥斯卡金像奖  (1975)<br />最佳影片(提名)  马文·沃尔斯<br />最佳导演(提名)  鲍勃·福斯<br />最佳男主角(提名)  达斯汀·霍夫曼<br />最佳女主角(提名)  瓦莱丽·佩莱恩<br />最佳改编剧本(提名)  朱利安·巴里<br />最佳摄影(提名)  布鲁斯·苏提斯<br /><br />第28届戛纳电影节  (1975)<br />主竞赛单元 金棕榈奖(提名)  鲍勃·福斯<br />主竞赛单元 最佳女演员  瓦莱丽·佩莱恩<br /><br /><fieldset><legend> 引用 </legend><br /><br />Title........: Lenny (1974)                            <br />Release Group: BMDru                                   <br />Ripper ......: chinyan                                 <br />Release Date : 05/21/2026                              <br />HD Source....: Lenny 1974 1080p Blu-ray AVC            <br />               LPCM 1.0-TMT (Thanks)                   <br />Video Format : x264                                    <br />Video Bitrate: 9102KBit/s                              <br />Aspect Ratio : 1.850:1                                 <br />Resolution ..: 1920 x 1038                             <br />Audio Bitrate: AC3 640 Kbps, 48 KHz, 16 bits , 1-ch    <br />BD Length ...: 1:51:39 (h:m:s)                         <br />Frame Rate ..: 23.976 fps                              <br />Language.....: English                                 <br />Subtitle(s) .: Chs(ass) / Cht(ass) / Eng(sup)          <br />Film Genre...: Drama / Biography                       <br />File Size ...: 7.78 GB                                 <br />IMDB Rating..: 7.5/10 from 19,443 users                <br />                                                       <br /><a class="faqlink" href="http://www.imdb.com/title/tt0071746/">http://www.imdb.com/title/tt0071746/</a>                   <br />                                                       <br />Config : ref=16,subme=11,Bbframes=16,me=umh,me_range=64<br /></fieldset><br /><br /><br /><span style="color: blue;"><font size="4">正片截图!</font> </span><br /><br /><a class="faqlink" href="https://imgbox.com/X3QrQQIV"><img alt="image" src="https://thumbs2.imgbox.com/c2/ec/X3QrQQIV_t.png" /></a> <br /><a class="faqlink" href="https://imgbox.com/LHVSGIXm"><img alt="image" src="https://thumbs2.imgbox.com/1a/98/LHVSGIXm_t.png" /></a> <br /><a class="faqlink" href="https://imgbox.com/XaQkQQih"><img alt="image" src="https://thumbs2.imgbox.com/81/1f/XaQkQQih_t.png" /></a> <br /><a class="faqlink" href="https://imgbox.com/g49aFTOE"><img alt="image" src="https://thumbs2.imgbox.com/13/b3/g49aFTOE_t.png" /></a> <br /><br /><span style="color: blue;"><font size="4">花絮截图!</font> </span><br /><br /><a class="faqlink" href="https://imgbox.com/ol0WlluJ"><img alt="image" src="https://thumbs2.imgbox.com/09/56/ol0WlluJ_t.png" /></a> <br /><a class="faqlink" href="https://imgbox.com/jVuc0eSn"><img alt="image" src="https://thumbs2.imgbox.com/c6/61/jVuc0eSn_t.png" /></a> <br /><a class="faqlink" href="https://imgbox.com/wAlpKKkf"><img alt="image" src="https://thumbs2.imgbox.com/8b/8f/wAlpKKkf_t.png" /></a></div>]]></description>
</item>
<item>
<title>[已拥有] [蜘蛛侠：平行宇宙] Spider-Man: Into the Spider-Verse 2018 2160p MA WEB-DL TrueHD 7.1 Atmos DV HDR H.265-TheFarm[蜘蛛侠：平行宇宙 / 蜘蛛侠：新纪元 / 蜘蛛人：新宇宙(台) / 蜘蛛侠：跳入蜘蛛宇宙(港) / 蜘蛛侠：平行世界 / Spider-Man: a New Universe | 类型: 动作 / 科幻 / 动画 / 冒险][23.54 GB][anonymous]</title>
<link>https://hdhome.org/details.php?id=293219</link>
<guid isPermaLink="false">055ebf52ce9ca57a0018149e891237f14ebb8d5e</guid>
<pubDate>Fri, 22 May 2026 13:04:08 +0800</pubDate>
<source>hdhome</source>
<enclosure url="https://hdhome.org/download.php?id=293219" type="application/x-bittorrent" />
<description><![CDATA[<p><b>🔗 来源:</b> hdhome</p>
<p><b>📅 发布时间:</b> Fri, 22 May 2026 13:04:08 +0800</p>
<p><b>⬇️ 详情:</b> <a href="https://hdhome.org/details.php?id=293219">https://hdhome.org/details.php?id=293219</a></p><hr/><p><b>📄 原文内容:</b></p>
<div><img alt="image" src="https://img1.pixhost.to/images/11738/686643990_p2535851348.jpg" /><br />
◎译　　名　蜘蛛侠：平行宇宙 / 蜘蛛侠：新纪元 / 蜘蛛人：新宇宙(台) / 蜘蛛侠：跳入蜘蛛宇宙(港) / 蜘蛛侠：平行世界 / Spider-Man: a New Universe<br />
◎片　　名　Spider-Man: Into the Spider-Verse<br />
◎年　　代　2018<br />
◎产　　地　美国<br />
◎类　　别　动作 / 科幻 / 动画 / 冒险<br />
◎语　　言　英语 / 西班牙语<br />
◎上映日期　2018-12-21(中国大陆) / 2018-12-14(美国)<br />
◎IMDb链接  <a class="faqlink" href="https://www.imdb.com/title/tt4633694/">https://www.imdb.com/title/tt4633694/</a><br />
◎豆瓣评分　8.6/10 from 753,160 users<br />
◎豆瓣链接　<a class="faqlink" href="https://movie.douban.com/subject/26374197/">https://movie.douban.com/subject/26374197/</a><br />
◎片　　长　116分钟(中国大陆)<br />
<br />
◎简　　介　<br />
<br />
　　正就读中学的少年迈尔斯（沙梅克·摩尔 Shameik Moore 配音）意外被一只遭受放射性污染的蜘蛛咬伤，随后身体发生奇特的变化。<br />
　　偶然机缘，他目睹了蜘蛛侠（克里斯·派恩 Chris Pine 配音）和犯罪头目金并（列维·施瑞博尔 Liev Schreiber 配音）的战斗。<br />
　　为了阻止金并利用时空对撞机扰乱宇宙，蜘蛛侠最终壮烈牺牲。<br />
　　可未过多久，来自平行宇宙的颓废的彼德·帕克（杰克·约翰逊 Jake M. Johnson 配音）出现在迈尔斯面前。<br />
　　为了阻止金并的阴谋，并帮助这个帕克返回自己的宇宙，他们闯入金并的老巢。<br />
　　在这一过程中，二人遭到章鱼博士和徘徊者的狙击。<br />
　　与此同时，来自其他宇宙的女蜘蛛侠、暗影蜘蛛侠、蜘猪侠、二次元蜘蛛妹相继出现。<br />
　　他们合力与恶势力展开斗争……<br />
<br />
<fieldset><legend> 引用 </legend><br />
General<br />
Unique ID &nbsp; &nbsp; &nbsp; &nbsp; &nbsp; &nbsp; &nbsp; &nbsp; &nbsp; &nbsp; &nbsp; &nbsp; &nbsp; &nbsp; &nbsp; &nbsp;: 54507610489430409198493056626131979370 (0x2901C8AF3BE8E1EBC7FE8E4DD9B7CC6A)<br />
Complete name &nbsp; &nbsp; &nbsp; &nbsp; &nbsp; &nbsp; &nbsp; &nbsp; &nbsp; &nbsp; &nbsp; &nbsp; &nbsp; &nbsp;: Spider-Man.Into.the.Spider-Verse.2018.2160p.MA.WEB-DL.TrueHD.Atmos.7.1.DV.HDR.H.265-TheFarm.mkv<br />
Format &nbsp; &nbsp; &nbsp; &nbsp; &nbsp; &nbsp; &nbsp; &nbsp; &nbsp; &nbsp; &nbsp; &nbsp; &nbsp; &nbsp; &nbsp; &nbsp; &nbsp; : Matroska<br />
Format version &nbsp; &nbsp; &nbsp; &nbsp; &nbsp; &nbsp; &nbsp; &nbsp; &nbsp; &nbsp; &nbsp; &nbsp; &nbsp; : Version 4<br />
File size &nbsp; &nbsp; &nbsp; &nbsp; &nbsp; &nbsp; &nbsp; &nbsp; &nbsp; &nbsp; &nbsp; &nbsp; &nbsp; &nbsp; &nbsp; &nbsp;: 23.5 GiB<br />
Duration &nbsp; &nbsp; &nbsp; &nbsp; &nbsp; &nbsp; &nbsp; &nbsp; &nbsp; &nbsp; &nbsp; &nbsp; &nbsp; &nbsp; &nbsp; &nbsp; : 1 h 56 min<br />
Overall bit rate mode &nbsp; &nbsp; &nbsp; &nbsp; &nbsp; &nbsp; &nbsp; &nbsp; &nbsp; &nbsp;: Variable<br />
Overall bit rate &nbsp; &nbsp; &nbsp; &nbsp; &nbsp; &nbsp; &nbsp; &nbsp; &nbsp; &nbsp; &nbsp; &nbsp; : 28.9 Mb/s<br />
Frame rate &nbsp; &nbsp; &nbsp; &nbsp; &nbsp; &nbsp; &nbsp; &nbsp; &nbsp; &nbsp; &nbsp; &nbsp; &nbsp; &nbsp; &nbsp; : 23.976 FPS<br />
Title &nbsp; &nbsp; &nbsp; &nbsp; &nbsp; &nbsp; &nbsp; &nbsp; &nbsp; &nbsp; &nbsp; &nbsp; &nbsp; &nbsp; &nbsp; &nbsp; &nbsp; &nbsp;: Spider-Man: Into the Spider-Verse (2018)<br />
Writing application &nbsp; &nbsp; &nbsp; &nbsp; &nbsp; &nbsp; &nbsp; &nbsp; &nbsp; &nbsp; &nbsp;: mkvmerge 96.0 (&#039;It&#039;s My Life&#039;) 64-bit<br />
Writing library &nbsp; &nbsp; &nbsp; &nbsp; &nbsp; &nbsp; &nbsp; &nbsp; &nbsp; &nbsp; &nbsp; &nbsp; &nbsp;: libebml v1.4.5 + libmatroska v1.7.1<br />
IMDB &nbsp; &nbsp; &nbsp; &nbsp; &nbsp; &nbsp; &nbsp; &nbsp; &nbsp; &nbsp; &nbsp; &nbsp; &nbsp; &nbsp; &nbsp; &nbsp; &nbsp; &nbsp; : tt4633694<br />
TMDB &nbsp; &nbsp; &nbsp; &nbsp; &nbsp; &nbsp; &nbsp; &nbsp; &nbsp; &nbsp; &nbsp; &nbsp; &nbsp; &nbsp; &nbsp; &nbsp; &nbsp; &nbsp; : movie/324857<br />
<br />
Video<br />
ID &nbsp; &nbsp; &nbsp; &nbsp; &nbsp; &nbsp; &nbsp; &nbsp; &nbsp; &nbsp; &nbsp; &nbsp; &nbsp; &nbsp; &nbsp; &nbsp; &nbsp; &nbsp; &nbsp; : 1<br />
Format &nbsp; &nbsp; &nbsp; &nbsp; &nbsp; &nbsp; &nbsp; &nbsp; &nbsp; &nbsp; &nbsp; &nbsp; &nbsp; &nbsp; &nbsp; &nbsp; &nbsp; : HEVC<br />
Format/Info &nbsp; &nbsp; &nbsp; &nbsp; &nbsp; &nbsp; &nbsp; &nbsp; &nbsp; &nbsp; &nbsp; &nbsp; &nbsp; &nbsp; &nbsp;: High Efficiency Video Coding<br />
Format profile &nbsp; &nbsp; &nbsp; &nbsp; &nbsp; &nbsp; &nbsp; &nbsp; &nbsp; &nbsp; &nbsp; &nbsp; &nbsp; : Main 10@L5@Main<br />
HDR format &nbsp; &nbsp; &nbsp; &nbsp; &nbsp; &nbsp; &nbsp; &nbsp; &nbsp; &nbsp; &nbsp; &nbsp; &nbsp; &nbsp; &nbsp; : Dolby Vision, Version 1.0, Profile 8.1, dvhe.08.06, BL+RPU, no metadata compression, HDR10 compatible / SMPTE ST 2086, Version HDR10, HDR10 compatible<br />
Codec ID &nbsp; &nbsp; &nbsp; &nbsp; &nbsp; &nbsp; &nbsp; &nbsp; &nbsp; &nbsp; &nbsp; &nbsp; &nbsp; &nbsp; &nbsp; &nbsp; : V_MPEGH/ISO/HEVC<br />
Duration &nbsp; &nbsp; &nbsp; &nbsp; &nbsp; &nbsp; &nbsp; &nbsp; &nbsp; &nbsp; &nbsp; &nbsp; &nbsp; &nbsp; &nbsp; &nbsp; : 1 h 56 min<br />
Bit rate &nbsp; &nbsp; &nbsp; &nbsp; &nbsp; &nbsp; &nbsp; &nbsp; &nbsp; &nbsp; &nbsp; &nbsp; &nbsp; &nbsp; &nbsp; &nbsp; : 24.6 Mb/s<br />
Width &nbsp; &nbsp; &nbsp; &nbsp; &nbsp; &nbsp; &nbsp; &nbsp; &nbsp; &nbsp; &nbsp; &nbsp; &nbsp; &nbsp; &nbsp; &nbsp; &nbsp; &nbsp;: 3 840 pixels<br />
Height &nbsp; &nbsp; &nbsp; &nbsp; &nbsp; &nbsp; &nbsp; &nbsp; &nbsp; &nbsp; &nbsp; &nbsp; &nbsp; &nbsp; &nbsp; &nbsp; &nbsp; : 2 160 pixels<br />
Display aspect ratio &nbsp; &nbsp; &nbsp; &nbsp; &nbsp; &nbsp; &nbsp; &nbs...</div>]]></description>
</item>
<item>
<title>[已拥有] [伪钞重案] The Counterfeit 2026 2160p WEB-DL HDR Vivid H.265 AAC-HDVWEB[伪钞重案 | 主演: 吴樾 / 谭凯 / 包贝尔 / 修睿 / 王李丹鈮][7.49 GB]</title>
<link>https://ptchdbits.co/details.php?id=551152</link>
<guid isPermaLink="false">6c0ad8614b1250c04107c039929661225f96c60e</guid>
<pubDate>Fri, 22 May 2026 12:20:28 +0800</pubDate>
<source>ptchdbits</source>
<enclosure url="https://ptchdbits.co/download.php?id=551152" type="application/x-bittorrent" />
<description><![CDATA[<p><b>🔗 来源:</b> ptchdbits</p>
<p><b>📅 发布时间:</b> Fri, 22 May 2026 12:20:28 +0800</p>
<p><b>⬇️ 详情:</b> <a href="https://ptchdbits.co/details.php?id=551152">https://ptchdbits.co/details.php?id=551152</a></p><hr/><p><b>📄 原文内容:</b></p>
<div><fieldset><legend> 引用 </legend><br /><b><span style="color: blue;">HDVideo官组作品，感谢原制作者发布。</span></b></fieldset><br /><br /><br /><img alt="image" src="https://img.hdvideo.top/images/2026/05/08/puL8y.webp" /><br />◎片　　名　伪钞重案<br />◎年　　代　2026<br />◎产　　地　中国大陆<br />◎类　　别　剧情/动作/犯罪<br />◎语　　言　汉语普通话<br />◎上映日期　2026-05-08(中国大陆网络)<br />◎豆瓣评分　/10 from 0 users<br />◎豆瓣链接　<a class="faqlink" href="https://douban.com/subject/38433149/">https://douban.com/subject/38433149/</a><br />◎导　　演　霍穗强 Suiqiang Huo<br />◎编　　剧　王翰林 Hanlin Wang<br />◎主　　演　吴樾 Yue Wu<br />　　　　　　谭凯 Kai Tan<br />　　　　　　包贝尔 Bei'er Bao<br />　　　　　　修睿 Rui Xiu<br />　　　　　　王李丹鈮 Daniella Wang<br />　　　　　　梁颂晴 Songqing Liang<br />　　　　　　雷牧 Mu Lei<br />　　　　　　好奇 Qi Hao<br />　　　　　　沐岚 Lan Mu<br />　　　　　　王蕴凡 Yunfan Wang<br /><br />◎简　　介<br /><br />　　<br />　　上世纪九十年代，特大伪钞案暗流涌动，社会动荡不安。退役散打王郑明为救治白血病女儿，意外踏入凶险的伪钞产业链，在生死边缘挣扎求生。刑警谢家同誓破伪钞源头，二人从针锋相对到暗中周旋，上演猫鼠博弈。郑明在暴利与良知间反复拉扯，暗中向警方传递线索，试图戴罪立功。当他决心交出核心伪钞母版、彻底脱身时，女儿却被绑架要挟。绝境之下，他与谢家同放下隔阂，联手出击，在宗族宗祠与民俗游行中展开终极血战，捣毁庞大伪钞帝国，以热血捍卫正义与亲情。<br /><fieldset><legend> 引用 </legend><br /><br />General<br />Complete name &nbsp; &nbsp; &nbsp; &nbsp; &nbsp; &nbsp; &nbsp; &nbsp; &nbsp; &nbsp; &nbsp; &nbsp; &nbsp; &nbsp;: 伪钞重案.The.Counterfeit.2026.2160p.WEB-DL.HDR.Vivid.H265.AAC-HDVWEB.mp4<br />Format &nbsp; &nbsp; &nbsp; &nbsp; &nbsp; &nbsp; &nbsp; &nbsp; &nbsp; &nbsp; &nbsp; &nbsp; &nbsp; &nbsp; &nbsp; &nbsp; &nbsp; : MPEG-4<br />Format profile &nbsp; &nbsp; &nbsp; &nbsp; &nbsp; &nbsp; &nbsp; &nbsp; &nbsp; &nbsp; &nbsp; &nbsp; &nbsp; : Base Media<br />Codec ID &nbsp; &nbsp; &nbsp; &nbsp; &nbsp; &nbsp; &nbsp; &nbsp; &nbsp; &nbsp; &nbsp; &nbsp; &nbsp; &nbsp; &nbsp; &nbsp; : isom (isom/iso2/mp41)<br />File size &nbsp; &nbsp; &nbsp; &nbsp; &nbsp; &nbsp; &nbsp; &nbsp; &nbsp; &nbsp; &nbsp; &nbsp; &nbsp; &nbsp; &nbsp; &nbsp;: 7.49 GiB<br />Duration &nbsp; &nbsp; &nbsp; &nbsp; &nbsp; &nbsp; &nbsp; &nbsp; &nbsp; &nbsp; &nbsp; &nbsp; &nbsp; &nbsp; &nbsp; &nbsp; : 1 h 36 min<br />Overall bit rate mode &nbsp; &nbsp; &nbsp; &nbsp; &nbsp; &nbsp; &nbsp; &nbsp; &nbsp; &nbsp;: Variable<br />Overall bit rate &nbsp; &nbsp; &nbsp; &nbsp; &nbsp; &nbsp; &nbsp; &nbsp; &nbsp; &nbsp; &nbsp; &nbsp; : 11.1 Mb/s<br />Frame rate &nbsp; &nbsp; &nbsp; &nbsp; &nbsp; &nbsp; &nbsp; &nbsp; &nbsp; &nbsp; &nbsp; &nbsp; &nbsp; &nbsp; &nbsp; : 24.000 FPS<br />Writing application &nbsp; &nbsp; &nbsp; &nbsp; &nbsp; &nbsp; &nbsp; &nbsp; &nbsp; &nbsp; &nbsp;: Lavf61.9.100<br />Cover &nbsp; &nbsp; &nbsp; &nbsp; &nbsp; &nbsp; &nbsp; &nbsp; &nbsp; &nbsp; &nbsp; &nbsp; &nbsp; &nbsp; &nbsp; &nbsp; &nbsp; &nbsp;: Yes<br />Cover type &nbsp; &nbsp; &nbsp; &nbsp; &nbsp; &nbsp; &nbsp; &nbsp; &nbsp; &nbsp; &nbsp; &nbsp; &nbsp; &nbsp; &nbsp; : Cover<br /><br />Video<br />ID &nbsp; &nbsp; &nbsp; &nbsp; &nbsp; &nbsp; &nbsp; &nbsp; &nbsp; &nbsp; &nbsp; &nbsp; &nbsp; &nbsp; &nbsp; &nbsp; &nbsp; &nbsp; &nbsp; : 1<br />Format &nbsp; &nbsp; &nbsp; &nbsp; &nbsp; &nbsp; &nbsp; &nbsp; &nbsp; &nbsp; &nbsp; &nbsp; &nbsp; &nbsp; &nbsp; &nbsp; &nbsp; : HEVC<br />Format/Info &nbsp; &nbsp; &nbsp; &nbsp; &nbsp; &nbsp; &nbsp; &nbsp; &nbsp; &nbsp; &nbsp; &nbsp; &nbsp; &nbsp; &nbsp;: High Efficiency Video Coding<br />Format profile &nbsp; &nbsp; &nbsp; &nbsp; &nbsp; &nbsp; &nbsp; &nbsp; &nbsp; &nbsp; &nbsp; &nbsp; &nbsp; : Main 10@L5@Main<br />HDR format &nbsp; &nbsp; &nbsp; &nbsp; &nbsp; &nbsp; &nbsp; &nbsp; &nbsp; &nbsp; &nbsp; &nbsp; &nbsp; &nbsp; &nbsp; : HDR Vivid, Version 1<br />Codec ID &nbsp; &nbsp; &nbsp; &nbsp; &nbsp; &nbsp; &nbsp; &nbsp; &nbsp; &nbsp; &nbsp; &nbsp; &nbsp; &nbsp; &nbsp; &nbsp; : hev1<br />Codec ID/Info &nbsp; &nbsp; &nbsp; &nbsp; &nbsp; &nbsp; &nbsp; &nbsp; &nbsp; &nbsp; &nbsp; &nbsp; &nbsp; &nbsp;: High Efficiency Video Coding<br />Duration &nbsp; &nbsp; &nbsp; &nbsp; &nbsp; &nbsp; &nbsp; &nbsp; &nbsp; &nbsp; &nbsp; &nbsp; &nbsp; &nbsp; &nbsp; &nbsp; : 1 h 36 min<br />Bit rate &nbsp; &nbsp; &nbsp; &nbsp; &nbsp; &nbsp; &nbsp; &nbsp; &nbsp; &nbsp; &nbsp; &nbsp; &nbsp; &nbsp; &nbsp; &nbsp; : 10.9 Mb/s<br />Width &nbsp; &nbsp; &nbsp; &nbsp; &nbsp; &nbsp; &nbsp; &nbsp; &nbsp; &nbsp; &nbsp; &nbsp; &nbsp; &nbsp; &nbsp; &nbsp; &nbsp; &nbsp;: 3 840 pixels<br />Height &nbsp; &nbsp; &nbsp; &nbsp; &nbsp; &nbsp; &nbsp; &nbsp; &nbsp; &nbsp; &nbsp; &nbsp; &nbsp; &nbsp; &nbsp; &nbsp; &nbsp; : 1 608 pixels<br />Display aspect ratio &nbsp; &nbsp; &nbsp; &nbsp; &nbsp; &nbsp; &nbsp; &nbsp; &nbsp; &nbsp; : 2.39:1<br />Frame rate mode &nbsp; &nbsp; &nbsp; &nbsp; &nbsp; &nbsp; &nbsp; &nbsp; &nbsp; &nbsp; &nbsp; &nbsp; &nbsp;: Constant<br />Frame rate &nbsp; &nbsp; &nbsp; &nbsp; &nbsp; &nbsp; &nbsp; &nbsp; &nbsp; &nbsp; &nbsp; &nbsp; &nbsp; &nbsp; &nbsp; : 24.000 FPS<br />Color space &nbsp; &nbsp; &nbsp; &nbsp; &nbsp; &nbsp; &nbsp; &nbsp; &nbsp; &nbsp; &nbsp; &nbsp; &nbsp; &nbsp; &nbsp;: YUV<br />Chroma subsampling &nbsp; &nbsp; &nbsp; &nbsp; &nbsp; &nbsp; &nbsp; &nbsp; &nbsp; &nbsp; &nbsp; : 4:2:0<br />Bit depth &nbsp; &nbsp; &nbsp; &nbsp; &nbsp; &nbsp; &nbsp; &nbsp; &nbsp; &nbsp; &nbsp; &nbsp; &nbsp; &nbsp; &nbsp; &nbsp;: 10 b...</div>]]></description>
</item>
<item>
<title>[已拥有] [极限审判] Mercy 2026 2160p WEB-DL H.265 10bit HDR Vivid DDP5.1-HDVWEB[极限审判/关键公敌(台)/宽恕/法无赦(港) 【导演: 提莫·贝克曼贝托夫 主演: 克里斯·帕拉特 丽贝卡·弗格森 卡莉·瑞斯】 HDVWEB小组作品][4.81 GB]</title>
<link>https://ptchdbits.co/details.php?id=551142</link>
<guid isPermaLink="false">6ea7ebe8a7442639bc87c8b15d8c409d7a7d9ddd</guid>
<pubDate>Fri, 22 May 2026 11:25:06 +0800</pubDate>
<source>ptchdbits</source>
<enclosure url="https://ptchdbits.co/download.php?id=551142" type="application/x-bittorrent" />
<description><![CDATA[<p><b>🔗 来源:</b> ptchdbits</p>
<p><b>📅 发布时间:</b> Fri, 22 May 2026 11:25:06 +0800</p>
<p><b>⬇️ 详情:</b> <a href="https://ptchdbits.co/details.php?id=551142">https://ptchdbits.co/details.php?id=551142</a></p><hr/><p><b>📄 原文内容:</b></p>
<div><fieldset><legend> 引用 </legend><br /><b><span style="color: blue;">HDVideo官组作品，感谢原制作者发布。</span></b></fieldset><br /><br /><br /><img alt="image" src="https://img2.pixhost.to/images/8066/729033537_ptgen_poster_oblp8m.jpg" /><br />◎译　　名　极限审判 / 关键公敌(台)/宽恕/法无赦(港)<br />◎片　　名　Mercy<br />◎年　　代　2026<br />◎产　　地　美国<br />◎类　　别　动作 / 科幻 / 悬疑<br />◎语　　言　英语<br />◎上映日期　2026-01-23(美国/中国大陆) / 2026-01-21(比利时)<br />◎IMDb链接 &nbsp;<a class="faqlink" href="https://www.imdb.com/title/tt31050594/">https://www.imdb.com/title/tt31050594/</a><br />◎IMDb评分 &nbsp;6.2/10 from 65456 users<br />◎豆瓣评分　7.2/10 from 90478 users<br />◎豆瓣链接　<a class="faqlink" href="https://movie.douban.com/subject/36749573/">https://movie.douban.com/subject/36749573/</a><br />◎片　　长　100分钟<br />◎导　　演　提莫·贝克曼贝托夫<br />◎编　　剧　马尔科·范贝勒<br />◎主　　演　克里斯·帕拉特<br />　　　　　　丽贝卡·弗格森<br />　　　　　　卡莉·瑞斯<br />　　　　　　安娜贝尔·沃利斯<br />　　　　　　克里斯·沙利文<br />　　　　　　凯莱·罗杰斯<br />　　　　　　杰夫·皮埃尔<br />　　　　　　拉菲·格拉沃恩<br />　　　　　　肯尼斯·崔<br />　　　　　　杰米·麦克布莱德<br />　　　　　　罗斯·格斯拉<br />　　　　　　马克·达内里<br />　　　　　　海顿·道尔顿<br />　　　　　　迈克尔·C·马洪<br />　　　　　　诺亚·费恩利<br />　　　　　　库里·普拉特<br />　　　　　　杰·杰克逊<br />　　　　　　马哈茂德·马哈茂德<br />　　　　　　安雅·阿克斯丁<br />　　　　　　理查德·赛特伦<br /><br />◎简　　介<br /><br />　　　　警探雷文（克里斯·帕拉特 饰）突遭指控，陷入杀妻疑云，被推上由AI判官裁决的审判席。90分钟倒计时启动，他必须借助AI“天眼”系统，在海量数据中寻找翻盘证据，推翻指向自己的致命结论，否则将被当庭处死。然而，调查越深入，嫌疑人越多，数据却不断自我验证、层层锁死真相。当算法 构成无法破解的死局，人类还能否挣脱系统的最终裁决?<br /><br /><fieldset><legend> 引用 </legend><br /><font face="Lucida Console">General<br />Complete name: Mercy.2026.2160p.WEB-DL.H265.10bit.HDR.Vivid.DDP5.1-HDVWEB.mp4<br />Format: MPEG-4<br />File Size: 4.81 GiB<br />Duration: 1 h 39 min<br />Overall bit rate: 6 907 kb/s<br />Encoded date: 2026-05-21 17:53:39 UTC<br /><br />Video<br />ID: 1<br />Format: HEVC<br />Format/Info: High Efficiency Video Coding<br />Format profile: Main 10@L5@Main<br />HDR format: HDR Vivid, Version 1<br />Codec ID: hev1<br />Duration: 1 h 39 min<br />Bit rate: 6 457 kb/s<br />Width: 3 840 pixels<br />Height: 1 744 pixels<br />Display aspect ratio: 2.2:1<br />Frame rate mode: Variable<br />Frame rate: 23.976 (23976/1000) FPS<br />Color space: YUV<br />Chroma subsampling: 4:2:0<br />Bit depth: 10 bits<br />Bits/(Pixel*Frame): 0.040<br />Stream size: 4.50 GiB (93%)<br />Color range: Limited<br />Color primaries: BT.2020<br />Transfer characteristics: PQ<br />Matrix coefficients: BT.2020 non-constant<br />Mastering display color primaries: R: x=0.708000 y=0.292000, G: x=0.170000 y=0.797000, B: x=0.130000 y=0.046000, White point: x=0.312700 y=0.329000<br />Mastering display luminance: min: 0.0001 cd/m2, max: 1000 cd/m2<br />Maximum Content Light Level: 540 cd/m2<br /><br />Audio #1<br />ID: 2<br />Format: AAC LC<br />Format/Info: Advanced Audio Codec Low Complexity<br />Commercial name: AAC<br />Codec ID: mp4a-40-2<br />Duration: 1 h 39 min<br />Bit rate mode: Variable<br />Bit rate: 192 kb/s<br />Channel(s): 2<br />Channel layout: L R<br />Sampling rate: 44.1 kHz<br />Frame rate: 43.066 FPS (1024 SPF)<br />Compression mode: Lossy<br />Stream size: 135 MiB (3%)<br />Default: Yes<br /><br />Audio #2<br />ID: 3<br />Format: E-AC-3<br />Format/Info: Enhanced AC-3<br />Commercial name: Dolby Digital Plus<br />Codec ID: ec-3<br />Duration: 1 h 39 min<br />Bit rate mode: Constant<br />Bit rate: 256 kb/s<br />Channel(s): 6<br />Channel layout: L R C LFE Ls Rs<br />Sampling rate: 48.0 kHz<br />Frame rate: 31.250 FPS (1536 SPF)<br />Compression mode: Lossy<br />Stream size: 183 MiB (4%)<br />Title: audio1<br />Service kind: Complete Main<br />Default: Yes<br /><br /></font></fieldset><br /><br /><br /><img alt="image" src="https://img.hdvideo.top/images/2026/05/22/plCPP.png" /></div>]]></description>
</item>
</channel>
</rss>